<svg xmlns="http://www.w3.org/2000/svg" width="626" height="351"><path fill="#FCFCFC" d="M0 0h626v351H0V0z"/><path fill="#FC9F46" d="M384 51l3.227 2.215c29.724 21.237 47.693 54.736 54.093 90.168.897 5.55 1.09 11.01.68 16.617h3v-2l3.75.563c3.104.405 5.224.222 8.25-.563l3 2c.286 2.603.378 4.967.34 7.57l.002 2.366a938.409 938.409 0 01-.049 7.76 3078.278 3078.278 0 01-.087 19.527c-.03 4.812-.044 9.625-.06 14.437-.032 9.447-.083 18.893-.146 28.34h3v-45h7v-3h2v3h12v35l4-2c2.75-.125 2.75-.125 5 0v2l1.793-.219c8.58-1.008 8.58-1.008 12.207-.781 1 1 1 1 1.114 3.408l-.016 3.158-.01 3.409-.026 3.588-.013 3.6c-.012 2.945-.028 5.891-.049 8.837l4 1v5l1.71-.52c2.48-.52 4.403-.449 6.915-.168.776.08 1.552.158 2.352.239C525 261 525 261 527 263h-14v2h9v1h-8l-1 4h-3v5c-4.759.297-8.749.326-13.188-1.563-3.648-1.516-5.975-1.832-9.812-.437-2.464 2.205-2.464 2.205-4 5v4c-3.75 1.125-3.75 1.125-6 0a139.595 139.595 0 00-4-1h3v-2l-7-2 .035 2.117c.01.91.018 1.82.027 2.758l.036 2.742C469 287 469 287 468 289c-3.958.029-7.917.047-11.875.063l-3.418.025-3.262.01-3.015.016C444 289 444 289 442 288l-.313 2.875C441 294 441 294 438 296c-2.48.195-2.48.195-5.188.125l-2.73-.055L428 296l-1 4c-1.478.194-2.958.38-4.438.563l-2.496.316L418 301l-1-1a69.603 69.603 0 00-4.063-.563L409 299l-1-10h-12v-3c-4.824 1.27-4.824 1.27-8 5l-4-1v3l-11 1-1-9-1 26c-5.405 1.351-9.08 1.683-14-1 .01.71.02 1.418.032 2.149.042 3.304.068 6.609.093 9.913l.05 3.377c.052 8.869-.977 16.573-2.175 25.561h-77c-4.58-20.606-4.58-20.606-4.434-28.191l-.029-5.17c.009-2.62.026-5.24.048-7.859.554-13.852.554-13.852-5.585-25.78l-3-2c-1.188-2.625-1.188-2.625-2-5l-2 3c-2.625.188-2.625.188-5 0l-1 2-1-2a101.168 101.168 0 00-6-2v2l-7 1-.184-1.898-.254-2.477c-.08-.812-.162-1.624-.246-2.46-.207-2.208-.207-2.208-1.316-4.165-2.527-.656-2.527-.656-5-1l-1 8-2.375.375c-2.766.416-2.766.416-4.625 2.625v-8c-7.842.565-7.842.565-15.625 1.625C208 274 208 274 206 273c-2.88-.233-5.741-.42-8.625-.563l-2.43-.13c-1.981-.107-3.963-.207-5.945-.307l4-2c-4.262-.793-8.38-1.177-12.71-1.316l-3.77-.127-3.895-.12-3.965-.13c-3.22-.106-6.44-.208-9.66-.307v2h3l1 4c-4.212 2.106-8.542 2.12-13.176 2.098l-3.506-.01-3.63-.026-3.69-.013c-3-.012-5.999-.028-8.998-.049l-1-7-33-1v-1l8-1-9-1v-1h17l-.125-4.063c0-4.302.734-7.84 2.125-11.937l1.125-3.438L116 242a99.984 99.984 0 015 0c1 1 1 1 1.098 3.504l-.035 3.059-.028 3.066L122 254h6v-87l5-2 1 1 16 1v75h2l1-3h3v-7h2l-.07-2.484-.055-3.266-.07-3.234c.194-2.997.523-4.557 2.195-7.016 3-2 3-2 6-2v2l2.313-1.063C171 214 171 214 174 215c1.997.352 3.997.688 6 1v9h5c-.11-4.188-.241-8.375-.375-12.563l-.094-3.58c-.202-6.007-.76-11.093-2.531-16.857-1.84-9.57-2.345-18.995-2.316-28.704.003-2.163-.02-4.324-.045-6.487-.06-12.972 1.773-25.512 6.048-37.809l.766-2.242C190.73 104.688 196.837 93.59 204 83l2-3h2l.805-1.766c2.097-3.92 5.198-6.98 8.195-10.234l1.71-1.91C238.22 45.346 264.486 34.613 292 30l3.297-.586C326.82 25.89 358.016 32.6 384 51z"/><path fill="#332A45" d="M316 104l-1.438 1.313c-1.799 1.71-1.799 1.71-2.562 4.687.626.23 1.253.461 1.898.7 3.47 2.146 3.52 5.263 4.442 9.058 1.096 5.384 1.924 10.798 2.66 16.242 5.357-.645 7.424-1.898 11-6 .923 7.123-1.182 10.446-5.469 16.094L325 148l2.406 1.61 3.094 2.14 3.094 2.11L336 156v4l3 1 1 2c1.748.956 3.496 1.912 5.246 2.863C347 167 347 167 348.875 169.5c2.649 3.116 5.237 4.072 9.004 5.508 4.942 2.312 6.257 6.274 8.082 11.16l.826 2.159c.577 1.514 1.15 3.03 1.719 4.547.85 2.264 1.714 4.522 2.58 6.78 2.784 7.31 5.427 14.655 7.805 22.108l.635 1.96c1.742 5.605 1.922 10.487 1.474 16.278l.004 3.434c-.18 9.859-3.089 15.65-10.004 22.566-.345 2.793-.443 5.56-.559 8.371-.495 2.949-1.07 3.873-3.441 5.629l-1.875.313c-3.421 1.106-4.936 3.937-7.125 6.687l-3 2c-.403 2.333-.403 2.333-.25 4.938l.047 2.652c.12 2.553.12 2.553 1.203 5.41a93.55 93.55 0 01.316 4.684l.128 2.792.118 2.962.125 3.029c.111 2.844.214 5.688.313 8.533l.133 3.594c.156 8.109-1.028 15.118-2.133 23.406h-77c-4.58-20.606-4.58-20.606-4.434-28.191l-.029-5.17c.009-2.62.026-5.24.048-7.859.554-13.852.554-13.852-5.585-25.78l-3-2c-1.43-2.546-2.74-5.06-4-7.688l-1.04-2.107A384.702 384.702 0 01257 266l-.903-1.92c-1.481-3.277-2.422-6.047-2.534-9.642-.352-4.394-1.874-6.91-4.563-10.438-2.48-7.442-.63-15.13 1.125-22.563l.674-2.91c1.74-7.232 4.012-14.092 6.81-20.976 1.294-3.304 2.258-6.573 3.204-9.988 2.041-6.307 5.892-10.639 11.187-14.563 2.281-.738 2.281-.738 4-1l.25-2.438c.96-4.558 1.962-8.76 4.75-12.562 2.368-1.17 4.485-1.774 7.074-2.27L290 154c.838-2.011.838-2.011 1-4l7-1c-1.125-2.972-2.223-5.334-4-8-.514-2.726-.811-5.243-1-8l-.27-3.285c-.396-8.479.67-14.18 6.27-20.715 4.6-3.915 10.922-7.431 17-5z"/><path fill="#C45D77" d="M398.684 147.886l3.539.016 3.437.008 4.403.027L424 148v42h9l3 1c1.845.149 3.694.248 5.543.316l2.93.116 3.715.13L460 192v48h3v-45h7v-3h2v3h12v35l4-2c2.75-.125 2.75-.125 5 0v2l1.793-.219c8.58-1.008 8.58-1.008 12.207-.781 1 1 1 1 1.114 3.408l-.016 3.158-.01 3.409-.025 3.587-.014 3.6c-.012 2.946-.028 5.892-.049 8.838l4 1v5l1.71-.52c2.48-.52 4.403-.449 6.915-.168.776.08 1.552.158 2.352.239C525 261 525 261 527 263h-14v2h9v1h-8l-1 4h-3v5c-4.759.297-8.749.326-13.187-1.563-3.65-1.516-5.976-1.832-9.813-.437-2.464 2.205-2.464 2.205-4 5v4c-3.75 1.125-3.75 1.125-6 0a139.595 139.595 0 00-4-1h3v-2l-7-2 .035 2.117.028 2.758.035 2.742C469 287 469 287 468 289c-3.958.029-7.917.047-11.875.062l-3.418.026-3.262.01-3.015.016C444 289 444 289 442 288l-.312 2.875C441 294 441 294 438 296c-2.48.195-2.48.195-5.187.125l-2.731-.055L428 296l-1 4c-1.478.194-2.958.38-4.437.562l-2.497.317L418 301l-1-1a69.603 69.603 0 00-4.062-.563L409 299l-1-10h-12v-3c-4.824 1.27-4.824 1.27-8 5l-4-1v3l-11 1-1-9-1 26c-4.44 1.11-8.07 1.813-12.375 0L357 310l-1 3-.184-2.3-.253-3.013-.247-2.988c-.234-2.793-.234-2.793-1.316-5.699-.52-3.437-.672-6.578 0-10 1.588-2.004 3.174-3.299 5.273-4.746 2.016-1.311 2.016-1.311 3.727-4.254a78.037 78.037 0 015-2c1.663-1.663 1.122-3.843 1.188-6.125.406-5.144 1.547-7.696 5.242-11.242 3.938-4.096 4.973-7.648 5.258-13.258l.199-3.414L380 240l.154-2.482c.3-7.588-1.444-13.683-4.029-20.768-.728-2.067-1.454-4.135-2.18-6.203l-1.03-2.897c-1.101-3.19-2.04-6.391-2.915-9.65 5.408.57 9.632 1.466 15 3v18h7c2.438.5 2.438.5 4 1l-.045-2.689c-.137-8.343-.27-16.687-.398-25.03-.066-4.291-.133-8.581-.205-12.871-.07-4.137-.134-8.273-.195-12.41-.024-1.582-.05-3.164-.078-4.745-.038-2.208-.07-4.416-.1-6.624l-.061-3.815c.11-3.775.11-3.775 3.766-3.93z"/><path fill="#CC4972" d="M216 143l3 1 .332 2.117.48 2.758.458 2.742c.56 2.727.56 2.727 3.73 4.383.293 2.602.293 2.602.188 5.625l-.083 3.04L224 167h3v38h2l1 3 2 1 1 24 2 1v5h2v-70c15 0 15 0 20 2 .245 3.946.459 7.892.647 11.84.1 1.992.225 3.982.35 5.972.32 7.067.108 12.381-2.924 18.801-1.931 4.295-2.808 8.868-3.823 13.45l-.668 2.814c-2.534 11.03-2.534 11.03.356 21.623l1.09 1.969c.885 1.516.885 1.516 1.972 2.531.129 1.335.223 2.673.3 4.012.613 6.072 3.243 10.725 6.08 16.033.364.713.727 1.427 1.1 2.162l1.029 1.921c.491 1.872.491 1.872-.414 4.11L261 280h-5l-1 2-1-2a101.168 101.168 0 00-6-2v2l-7 1-.184-1.898-.254-2.477c-.08-.812-.162-1.624-.246-2.46-.207-2.208-.207-2.208-1.316-4.165-2.527-.656-2.527-.656-5-1l-1 8-2.375.375c-2.766.416-2.766.416-4.625 2.625v-8c-7.842.565-7.842.565-15.625 1.625C208 274 208 274 206 273c-2.88-.233-5.741-.42-8.625-.563l-2.43-.13c-1.981-.107-3.963-.207-5.945-.307l4-2c-4.262-.793-8.38-1.177-12.71-1.316l-3.77-.127-3.895-.12-3.965-.13c-3.22-.106-6.44-.208-9.66-.307v2h3l1 4c-4.212 2.106-8.542 2.12-13.176 2.098l-3.506-.01-3.63-.026-3.69-.013c-3-.012-5.999-.028-8.998-.049l-1-7-33-1v-1l8-1-9-1v-1h17l-.125-4.063c0-4.302.734-7.84 2.125-11.937l1.125-3.438L116 242a99.984 99.984 0 015 0c1 1 1 1 1.098 3.504l-.035 3.059-.028 3.066L122 254h6v-87l5-2 1 1 16 1v75h2l1-3h3v-7h2l-.07-2.484-.055-3.266-.07-3.234c.194-2.997.523-4.557 2.195-7.016 3-2 3-2 6-2v2l2.313-1.063C171 214 171 214 174 215c1.997.352 3.997.688 6 1v9h5v-40h18v40h7l-.013-2.378c-.04-7.387-.071-14.774-.09-22.16-.011-3.799-.025-7.597-.048-11.395a2367.79 2367.79 0 01-.039-10.99c-.003-1.4-.01-2.799-.021-4.198a806.87 806.87 0 01-.016-5.869l-.014-3.378C210 162 210 162 212 160c.352-2.462.352-2.462.438-5.25.333-4.703 1.085-7.766 3.562-11.75z"/><path fill="#C2376B" d="M316 104l-1.438 1.313c-1.799 1.71-1.799 1.71-2.562 4.687.626.23 1.253.461 1.898.7 3.47 2.146 3.52 5.263 4.442 9.058 1.096 5.384 1.924 10.798 2.66 16.242 5.357-.645 7.424-1.898 11-6 .923 7.123-1.182 10.446-5.469 16.094L325 148l2.406 1.61 3.094 2.14 3.094 2.11L336 156v4l3 1 1 2c1.748.956 3.496 1.912 5.246 2.863C347 167 347 167 348.875 169.5c2.649 3.116 5.237 4.072 9.004 5.508 4.405 2.06 5.746 5.021 7.418 9.465l1.215 3.224 1.238 3.365 1.285 3.377c2.298 6.173 2.298 6.173 2.965 8.561l-1 2-2-1 .035 2.047c.01.892.018 1.784.027 2.703l.036 2.672c-.09 2.36-.429 4.323-1.098 6.578h-2l-1 5h-1v-11l-3-1-1-8h-2c.142-1.417.289-2.834.438-4.25l.246-2.39c.292-2.184.737-4.237 1.316-6.36h-2l-2 7h-1l-1-7-3 7h-3v-5l-2.313-.25C343 191 343 191 341.063 189.375c-1.596-3.568-.379-5.82.938-9.375l1-2c-3.887 3.208-3.887 3.208-5.313 7.813L338 188h2c9.007 13.778 8.416 28.141 8 44h-2l-.076-2.048c-.116-3.067-.239-6.135-.361-9.202l-.12-3.223-.127-3.105-.11-2.857c-.157-2.834-.157-2.834-1.206-6.565v11c-2.44-2.44-2.615-4.542-3.36-7.824-1.007-3.423-2.755-6.16-4.64-9.176v3h-2l1 4 2-3c2.21 4.41 2.237 8.49 2.125 13.313l-.027 2.244c-.024 1.814-.06 3.629-.098 5.443h2v13h-3l-2-12h-1v-10h-2c-3-8.8-3-8.8-3-12h-2v-2l-5-1v2h-7v-3h-2v-2l1.828.035 2.422.028 2.39.035c2.351-.002 2.351-.002 4.485-.723L327 196c2.75 1.938 2.75 1.938 5 4-1.074-2.915-1.778-4.778-4-7-2.744-.141-5.431.005-8.176.125C317 193 317 193 314.547 192.015c-3.126-1.246-5.628-1.28-8.985-1.265l-3.308-.016c-3.482.285-6.095.757-9.254 2.266-1.343 2.333-1.343 2.333-2 5l-1 2.113c-3.507 7.713-4.214 15.546-5 23.887h-1c-.054-3.063-.094-6.125-.125-9.188-.017-.864-.034-1.728-.05-2.619-.036-4.57.117-8.017 2.175-12.193.383-1.388.74-2.784 1.063-4.188C288 192 288 192 289 190c3.601-.9 7.226-1.542 10.875-2.219L303 187l1-2-3.25-.188c-8.333-1.037-15.983-5.004-22.75-9.812h-2l2.375 2.313c4.636 4.746 4.636 4.746 4.602 7.73L282 191l-6-1v-2l-9-1v8l-5 1 .5 1.5c1.192 5.96.746 10.886-1.5 16.5h-3l-2 6h-2l.125 3.063c-.129 4.049-.947 7.074-2.125 10.937-.721 3.323-1.368 6.659-2 10-3.505-5.258-2.281-11.126-1.117-17.129.4-1.814.815-3.625 1.242-5.434l.674-2.91c1.74-7.232 4.012-14.092 6.81-20.976 1.294-3.304 2.258-6.573 3.204-9.988 2.041-6.307 5.892-10.639 11.187-14.563 2.281-.738 2.281-.738 4-1l.25-2.438c.96-4.558 1.962-8.76 4.75-12.562 2.368-1.17 4.485-1.774 7.074-2.27L290 154c.838-2.011.838-2.011 1-4l7-1c-1.125-2.972-2.223-5.334-4-8-.514-2.726-.811-5.243-1-8l-.27-3.285c-.396-8.479.67-14.18 6.27-20.715 4.6-3.915 10.922-7.431 17-5z"/><path fill="#745275" d="M470 192h2v3h12v35l4-2c2.75-.125 2.75-.125 5 0v2l1.793-.219c8.58-1.008 8.58-1.008 12.207-.781 1 1 1 1 1.114 3.408l-.016 3.158-.01 3.409-.026 3.588-.013 3.6c-.012 2.945-.028 5.891-.049 8.837l4 1v5l1.71-.52c2.48-.52 4.403-.449 6.915-.168.776.08 1.552.158 2.352.239C525 261 525 261 527 263h-14v2h9v1h-8l-1 4h-3v5c-4.759.297-8.749.326-13.188-1.563-3.648-1.516-5.975-1.832-9.812-.437-2.464 2.205-2.464 2.205-4 5v4c-3.75 1.125-3.75 1.125-6 0a139.595 139.595 0 00-4-1h3v-2l-7-2v3l-6 1v-2l-10-2 1-7h-27v5l-5-1-1-7-4-1v-2h11l-.016-3.934c-.175-47.479-.175-47.479 1.016-67.066h1v71h2v-70l5-1v3h3l.313 2.313c.41 2.72.41 2.72 2.242 3.94 2.243 2.712 1.58 4.96 1.257 8.372l-.292 3.54L443 217l-2 1c3.714 1.238 7.313 1.356 11.188 1.563L460 220v20h3v-45h7v-3zm-30 20l1 2 1-2h-2z"/><path fill="#2D2941" d="M348 261l3 1 1 7-4 1v2h4c.337 1.437.67 2.874 1 4.313l.563 2.425C354 281 354 281 354 284l2 1-.492 1.684c-.554 2.525-.64 4.795-.633 7.378l-.008 2.598c.04 2.496.04 2.496 1.133 5.34a93.55 93.55 0 01.316 4.684l.128 2.792.118 2.962.125 3.029c.111 2.844.214 5.688.313 8.533l.133 3.594c.156 8.109-1.028 15.118-2.133 23.406h-77c-4.597-20.685-4.597-20.685-4.172-28.219l.085-2.531c.09-2.585.213-5.167.337-7.75.069-1.78.135-3.56.2-5.34.118-3.213.248-6.426.395-9.639.216-4.363.216-4.363-.845-8.521h2v2l2.438.438C281 292 281 292 282 293c13.6 3.345 28.124 2.188 42 2l1-2c2.315-.71 4.586-1.317 6.938-1.875 10.284-2.092 10.284-2.092 19.062-7.125l-2.23-.148-2.957-.227c-.963-.07-1.926-.14-2.918-.21-2.91-.417-5.224-1.214-7.895-2.415.188-2.375.188-2.375 1-5 2.89-1.597 4.69-2 8-2l-.188-3.313C344 267 344 267 345.438 265.25L347 264l1-3z"/><path fill="#864E74" d="M132 165l2 1 16 1v75h2l1-3h3v-7h2l-.07-2.484-.055-3.266-.07-3.234c.194-2.997.523-4.557 2.195-7.016 3-2 3-2 6-2v2l2.313-1.063C171 214 171 214 174 215c1.997.352 3.997.688 6 1v9l6-1-1 3h-4v4l5-1 .367 2.047.508 2.703.492 2.672c.523 2.563.523 2.563 1.703 4.656C190 244 190 244 190 248h4v12h8v5l-3 1 6 1v1h-46v2h3l1 4c-4.212 2.106-8.542 2.12-13.176 2.098l-3.506-.01-3.63-.026-3.69-.013c-3-.012-5.999-.028-8.998-.049l-1-7-33-1v-1l8-1-9-1v-1h17l-.125-4.063c0-4.302.734-7.84 2.125-11.937l1.125-3.438L116 242a99.984 99.984 0 015 0c1 1 1 1 1.098 3.504l-.035 3.059-.028 3.066L122 254h6v-87l4-2z"/><path fill="#E05671" d="M398.684 147.886l3.539.016 3.437.008 4.403.027L424 148v44l-7 1c-2.311 2.822-2.227 5.562-2.16 9.113l.037 3.087.06 3.327c.01 2.343.016 4.687.02 7.03.014 3.68.043 7.358.115 11.038.443 24.708.443 24.708-8.822 34.415L404 263l-1 1c-3.101.284-6.203.449-9.312.621L391 265l-1 2-14-2v-2l-2-1 2.438-3.125c3.681-5.876 3.487-12.116 3.562-18.875l.146-2.47c.303-7.595-1.432-13.686-4.021-20.78-.728-2.067-1.454-4.135-2.18-6.203l-1.03-2.897c-1.101-3.19-2.04-6.391-2.915-9.65 5.408.57 9.632 1.466 15 3v18h7c2.438.5 2.438.5 4 1l-.045-2.689c-.137-8.343-.27-16.687-.398-25.03-.066-4.291-.133-8.581-.205-12.871-.07-4.137-.134-8.273-.195-12.41-.024-1.582-.05-3.164-.078-4.745-.038-2.208-.07-4.416-.1-6.624l-.061-3.815c.11-3.775.11-3.775 3.766-3.93z"/><path fill="#FB783F" d="M384 51l1.823 1.257c9.839 6.807 9.839 6.807 10.993 10L397 64h-3v-2l-3.77.07c-1.68.02-3.362.037-5.043.055l-2.466.05c-4.32.035-8.258-.217-12.479-1.148-9.276-1.846-18.882-1.465-28.305-1.59-2.972-.043-5.945-.09-8.918-.142-1.84-.032-3.679-.06-5.519-.08l-2.5-.041-2.201-.03C321 59 321 59 319 58c-1.816-.097-3.635-.13-5.453-.133l-3.317-.004-3.48.012-3.434-.012-3.332.004-3.04.004c-2.978.07-2.978.07-6.014.643-2.72.451-5.05.541-7.793.4l-2.69-.133-2.76-.156-2.724-.133c-7.139-.371-14.19-1.13-21.276-2.054-5.552-.63-11.107-.523-16.687-.438v-2l-1.188 1.313c-2.095 1.95-4.35 3.235-6.812 4.687l-2 2-3-1c20.532-16.783 41.8-26.74 68-31l3.29-.582C326.795 25.869 358.034 32.6 384 51z"/><path fill="#FCC252" d="M332 132h2v2l1.906-.035c5.475-.058 10.679.233 16.094 1.035l-1 2c-2.066.414-2.066.414-4.563.625l-2.503.227L342 138l1 2 27 1 1 3c2.076.732 2.076.732 4.5 1.063 2.469.41 2.469.41 4.5.937l1 2h14c.837 4.183 1.121 7.502 1.114 11.718v1.983c0 2.148-.008 4.296-.016 6.444l-.005 4.485c-.003 3.924-.013 7.848-.024 11.772-.01 4.009-.015 8.017-.02 12.026-.01 7.857-.028 15.715-.049 23.572l-11-1-1-18-6.688-.75c-6.694-1.41-6.694-1.41-9.214-4.84-1.226-3.105-2.195-6.197-3.098-9.41-2.054-5.095-3.816-8.655-9-11-4.618-2.116-7.462-4.373-11-8a374.137 374.137 0 00-6-4c-2.894-2.395-2.894-2.395-3.332-4.898-.884-2.782-2.175-3.57-4.543-5.227l-2.117-1.508A615.005 615.005 0 00324 148l1.496-1.977 1.942-2.648 1.933-2.602c1.76-2.997 2.272-5.34 2.629-8.773z"/><path fill="#D5B5B7" d="M159 268c42.178-.582 42.178-.582 49 5 2.012-.251 4.01-.61 6-1 4.001-.102 7.998-.058 12 0l1 6 1-1a99.984 99.984 0 015 0l-.063-2.875C233 271 233 271 234 269h6c.96 2.882 1.106 4.699 1.063 7.688l-.028 2.449L241 281l7-1v-2c5.75.875 5.75.875 8 2 2.567-.247 2.567-.247 5-1l1-2-2-1c1.875.188 1.875.188 4 1a206.38 206.38 0 012 5l2.438 2.438c3.76 3.76 5.695 7.304 5.903 12.64 0 1.534-.018 3.068-.048 4.602l-.013 2.463a923.787 923.787 0 01-.092 7.732c-.016 1.755-.03 3.51-.042 5.266-.032 4.286-.084 8.573-.146 12.859h-5v-2h-4l-1-37h-1l-1 13h-2l-1 3c-1.938-.375-1.938-.375-4-1l-1-2-3-1v-19h-2l.048 1.697c.062 2.538.101 5.076.14 7.615l.076 2.67.029 2.569.048 2.364c-.428 2.616-1.255 3.499-3.341 5.085-2 0-2 0-4.11-1.98-2.48-3.963-2.352-6.775-2.14-11.332l.055-2.245c.047-1.815.118-3.629.195-5.443h-7v11l-3 1v4h-2v7h-5l-1 6h-2l-.75-2.438L218 309l-4-1-1-26h-3v-2h-4v12l-6 1v-3h-2v9h-17v-5l-2-1 2-1c-1.27-4.824-1.27-4.824-5-8a75.316 75.316 0 00-5-1v-2l-4-2 9-1v-1l-9-1v-7h-8v-1z"/><path fill="#613556" d="M314 156v10h4c-.507 3.719-1.116 6.735-3 10l2.313-1.875c3.547-2.805 5.638-4.313 10.125-4.563 3.798-.326 5.618-1.07 8.562-3.562l3 1c-3.727 3.967-7.78 7.25-12.11 10.547-1.796 1.316-1.796 1.316-2.89 2.453 5.08-1.56 9.438-3.235 14-6l2 1a154.254 154.254 0 01-2.688 3.5l-1.511 1.969C334 182 334 182 331.293 182.219L329 182a12640927560.82 12640927560.82 0 015.875 5.375l1.684 1.54c8.014 7.337 11.043 12.818 11.574 23.851.125 6.413.035 12.823-.133 19.234h-2l-.076-2.048c-.116-3.067-.239-6.135-.361-9.202l-.12-3.223-.127-3.105-.11-2.857c-.157-2.834-.157-2.834-1.206-6.565v11c-2.44-2.44-2.615-4.542-3.36-7.824-1.007-3.423-2.755-6.16-4.64-9.176v3h-2l1 4 2-3c2.21 4.41 2.237 8.49 2.125 13.313l-.027 2.244c-.024 1.814-.06 3.629-.098 5.443h2v13h-3l-2-12h-1v-10h-2c-3-8.8-3-8.8-3-12h-2v-2l-5-1v2h-7v-3h-2v-2l1.828.035 2.422.028 2.39.035c2.351-.002 2.351-.002 4.485-.723L327 196c2.75 1.938 2.75 1.938 5 4-1.074-2.915-1.778-4.778-4-7-2.744-.141-5.431.005-8.176.125C317 193 317 193 314.547 192.015c-3.126-1.246-5.628-1.28-8.985-1.265l-3.308-.016c-3.482.285-6.095.757-9.254 2.266-1.343 2.333-1.343 2.333-2 5l-1 2.113c-3.507 7.713-4.214 15.546-5 23.887h-1c-.054-3.063-.094-6.125-.125-9.188-.017-.864-.034-1.728-.05-2.619-.036-4.57.117-8.017 2.175-12.193.383-1.388.74-2.784 1.063-4.188C288 192 288 192 289 190c3.601-.9 7.226-1.542 10.875-2.219L303 187l1-2-3.25-.188c-8.333-1.037-15.983-5.004-22.75-9.812h-2l2.375 2.313c4.636 4.746 4.636 4.746 4.602 7.73L282 191l-6-1v-2l-9-1v8l-5 1 .5 1.5c1.192 5.96.746 10.886-1.5 16.5h-3l-2 6h-2l.125 3.063c-.129 4.049-.947 7.074-2.125 10.937-.721 3.323-1.368 6.659-2 10-3.505-5.258-2.281-11.126-1.117-17.129.4-1.814.815-3.625 1.242-5.434l.674-2.91c1.74-7.232 4.012-14.092 6.81-20.976 1.294-3.304 2.258-6.573 3.204-9.988 2.041-6.307 5.892-10.639 11.187-14.563 2.281-.738 2.281-.738 4-1l.375-2.688c.597-3.162 1.085-5.495 2.625-8.312 10.582-5.228 23.46-6.697 35-5z"/><path fill="#D1A9AA" d="M427 270h27l-1 7 3.25-.188c4.058.203 4.74.78 7.75 3.188 2.668.251 2.668.251 5 0 .125 6.75.125 6.75-1 9-3.958.029-7.917.047-11.875.063l-3.418.025-3.262.01-3.015.016C444 289 444 289 442 288l-.313 2.875C441 294 441 294 438 296c-2.48.195-2.48.195-5.188.125l-2.73-.055L428 296l-1 4c-1.478.194-2.958.38-4.438.563l-2.496.316L418 301l-1-1a69.603 69.603 0 00-4.063-.563L409 299l-1-10h-12v-3c-4.824 1.27-4.824 1.27-8 5l-4-1v3l-11 1-1-9-1 26c-4.44 1.11-8.07 1.813-12.375 0L357 310l-1 3c-.09-1.139-.09-1.139-.184-2.3l-.253-3.012-.247-2.989c-.234-2.793-.234-2.793-1.316-5.699-.52-3.437-.672-6.578 0-10 1.588-2.004 3.174-3.299 5.273-4.746 2.016-1.311 2.016-1.311 3.727-4.254l7-2 2-3 1 7 2.484-.254 3.266-.308 3.234-.317c2.657-.107 4.516.06 7.016.879v-2h9v2h2v-2l6-1 1-7h2v2h5v-2h8v2l5 1v-5z"/><path fill="#A14E75" d="M429 193h1v71h2v-70l5-1v3h3l.313 2.313c.41 2.72.41 2.72 2.242 3.94 2.243 2.712 1.58 4.96 1.257 8.372l-.292 3.54L443 217l-2 1c3.714 1.238 7.313 1.356 11.188 1.563L460 220v20h4v14h-6v-7h-6l-.75 1.938c-1.364 3.341-2.829 6.628-4.313 9.917a75.523 75.523 0 00-1.937 4.957c-1.289 2.82-2.565 4.249-5 6.188-3.234.39-3.234.39-6.75.25l-3.547-.11L427 270v5l-5-1-1-7-4-1v-2h11l-.016-3.934c-.175-47.479-.175-47.479 1.016-67.066zm11 19l1 2 1-2h-2z"/><path fill="#8F4F75" d="M132 165l2 1c2.713.232 5.408.42 8.125.563l2.285.13c1.863.106 3.727.207 5.59.307.023 9.483.04 18.967.052 28.45.005 4.404.012 8.807.023 13.21.011 4.247.017 8.494.02 12.741.002 1.623.005 3.245.01 4.868.008 2.268.009 4.535.009 6.803l.006 3.916C150 240 150 240 149 242h-19v-74l-2-1c1.875-1.063 1.875-1.063 4-2z"/><path fill="#E0657A" d="M237 169a748.58 748.58 0 017.188-.125l2.04-.05c4.06-.04 7.122.375 10.772 2.175.245 3.946.459 7.892.647 11.84.1 1.992.225 3.982.35 5.972.32 7.067.108 12.381-2.924 18.801-1.931 4.295-2.808 8.868-3.823 13.45l-.668 2.814c-2.534 11.03-2.534 11.03.356 21.623l1.09 1.969c.885 1.516.885 1.516 1.972 2.531.309 3.473.387 5.387-1.5 8.375L251 260v-2l-2.555.07-3.32.055-3.305.07C239 258 239 258 237 256a90.682 90.682 0 01-.633-7.564l-.115-2.302c-.362-8.04-.282-16.062-.13-24.107l.07-4.635c.062-4.003.132-8.006.203-12.009.071-4.11.136-8.22.2-12.33.128-8.018.264-16.036.405-24.053z"/><path fill="#332743" d="M316 104l-1.438 1.313c-1.799 1.71-1.799 1.71-2.562 4.687.626.23 1.253.461 1.898.7 3.47 2.146 3.52 5.263 4.442 9.058 1.096 5.384 1.924 10.798 2.66 16.242 5.357-.645 7.424-1.898 11-6 .923 7.123-1.182 10.446-5.469 16.094L325 148l3 3c-.715-.01-1.43-.02-2.168-.032-3.277-.042-6.555-.067-9.832-.093-1.125-.017-2.25-.034-3.41-.05-6.28-.038-11.567.437-17.59 2.175h-4v-3l7-1c-1.125-2.972-2.223-5.334-4-8-.514-2.726-.811-5.243-1-8l-.27-3.285c-.396-8.479.67-14.18 6.27-20.715 4.6-3.915 10.922-7.431 17-5z"/><path fill="#4B3053" d="M354 188h1l1 6 2-4h2a438.124 438.124 0 01-2 13h2l.367 1.715.508 2.222.492 2.215c.463 2.055.463 2.055 2.633 2.848.414 2.285.414 2.285.625 5.063l.227 2.785L365 222l1-4h2l-.035-2.555c-.01-1.095-.018-2.191-.027-3.32l-.036-3.305C368 206 368 206 369 204c1.866.19 1.866.19 4 1 1.188 2.142 1.188 2.142 2.14 4.96l1.055 3.122 1.055 3.293 1.102 3.176c2.312 7.033 3.071 13.08 2.648 20.449l-.043 3.855c-.31 7.135-.978 12.729-5.957 18.145h-1c-.49-5.062 1.29-9.326 3-14l-3.688 1c-3.184.803-6.01 1.206-9.312 1l-.938-3.438c-.691-3.35-.691-3.35-2.062-4.562a85.688 85.688 0 01-.563-4.563l-.253-2.503L360 233l-2 4h-3l-.184-2.152-.253-2.786-.247-2.777c-.076-2.247-.076-2.247-1.316-3.285a82.046 82.046 0 01-.063-4.813l.028-2.644L353 216v-4l-3 4 1-16h-3l-2-8h2v5h3l3-9z"/><path fill="#EDE2DC" d="M234 269h6c.96 2.882 1.106 4.699 1.063 7.688l-.028 2.449L241 281l7-1v-2c5.75.875 5.75.875 8 2 2.567-.247 2.567-.247 5-1l1-2-2-1c1.875.188 1.875.188 4 1a206.38 206.38 0 012 5l2.438 2.438c3.76 3.76 5.695 7.304 5.903 12.64 0 1.534-.018 3.068-.048 4.602l-.013 2.463a923.787 923.787 0 01-.092 7.732c-.016 1.755-.03 3.51-.042 5.266-.032 4.286-.084 8.573-.146 12.859h-5v-2h-4l-1-37h-1l-1 13h-2l-1 3c-1.938-.375-1.938-.375-4-1l-1-2-3-1v-19h-2l.048 1.697c.062 2.538.101 5.076.14 7.615l.076 2.67.029 2.569.048 2.364c-.428 2.616-1.255 3.499-3.341 5.085-2 0-2 0-4.11-1.98-2.48-3.963-2.352-6.775-2.14-11.332l.055-2.245c.047-1.815.118-3.629.195-5.443h-7c-.027-2.292-.046-4.583-.063-6.875l-.035-3.867C233 271 233 271 234 269z"/><path fill="#E47582" d="M396 153h15v8l-2 1 2 1v56l-15 1v-67z"/><path fill="#DF5079" d="M213 168h12l.076 3.349c.094 4.098.194 8.196.296 12.294.044 1.774.085 3.548.125 5.323.058 2.549.122 5.098.187 7.647l.05 2.406c.087 3.228.239 5.899 1.266 8.981 2 1.209 2 1.209 4 2 .175 3.854.281 7.706.375 11.563l.152 3.29c.118 6.462-.356 10.306-4.898 15.06C225 241 225 241 221.625 240.936L219 240v-2h-6c-1.127-7.39-1.127-7.39-.516-10.317.516-2.685.645-5.113.649-7.843l.004-2.904-.012-2.999.012-3.01-.004-2.9-.004-2.633c-.048-2.366-.048-2.366-.669-4.482-.727-3.02.09-5.87.54-8.912l-1-2c.328-2.334.66-4.668 1-7l-1-1c-.164-4.84.047-9.233 1-14z"/><path fill="#4F2F50" d="M278 174c4.935.4 8.189 1.444 12.442 3.934 6.525 3.808 12.078 5.82 19.683 5.754l2.115-.018c4.59-.218 7.782-1.461 11.76-3.67a98.263 98.263 0 014.563-1.5c3.49-1.105 6.302-2.6 9.437-4.5l2 1a154.254 154.254 0 01-2.688 3.5l-1.511 1.969C334 182 334 182 331.293 182.219L329 182l2.555 2.336 3.32 3.039 1.684 1.54c8.014 7.337 11.043 12.818 11.574 23.851.125 6.413.035 12.823-.133 19.234h-2l-.076-2.048c-.116-3.067-.239-6.135-.361-9.202l-.12-3.223-.127-3.105-.11-2.857c-.157-2.834-.157-2.834-1.206-6.565v11c-2.44-2.44-2.615-4.542-3.36-7.824-1.007-3.423-2.755-6.16-4.64-9.176v3h-2l1 4 2-3c2.21 4.41 2.237 8.49 2.125 13.313l-.027 2.244c-.024 1.814-.06 3.629-.098 5.443h2v13h-3l-2-12h-1v-10h-2c-3-8.8-3-8.8-3-12h-2v-2l-5-1v2h-7v-3h-2v-2l1.828.035 2.422.028 2.39.035c2.351-.002 2.351-.002 4.485-.723L327 196c2.75 1.938 2.75 1.938 5 4-1.074-2.915-1.778-4.778-4-7-2.744-.141-5.431.005-8.176.125C317 193 317 193 314.547 192.015c-3.126-1.246-5.628-1.28-8.985-1.265l-3.308-.016c-3.482.285-6.095.757-9.254 2.266-1.343 2.333-1.343 2.333-2 5l-1 2.113c-3.507 7.713-4.214 15.546-5 23.887h-1c-.054-3.063-.094-6.125-.125-9.188-.017-.864-.034-1.728-.05-2.619-.036-4.57.117-8.017 2.175-12.193.383-1.388.74-2.784 1.063-4.188C288 192 288 192 289 190c3.601-.9 7.226-1.542 10.875-2.219L303 187l1-2-3.25-.188c-8.13-1.012-16.303-4.798-22.75-9.812v-1z"/><path fill="#BF90A3" d="M427 270h27l-1 7 3.25-.188c4.058.203 4.74.78 7.75 3.188 2.668.251 2.668.251 5 0 .125 6.75.125 6.75-1 9-3.958.029-7.917.047-11.875.063l-3.418.025-3.262.01-3.015.016C444 289 444 289 442 288l-.313 2.875C441 294 441 294 438 296l-1.625-1c-2.914-1.227-5.244-1.142-8.375-1v-2h-2l1-12h-17v-1h17c-1.214-1.444-1.214-1.444-4.816-1.098a751.2 751.2 0 00-4.747.036l-2.443.013c-1.998.012-3.996.03-5.994.049v-4h5v-2h8v2l5 1v-5z"/><path fill="#FDC759" d="M183 128h1c.054 2.375.094 4.75.125 7.125.017.665.034 1.33.05 2.016.032 3.152-.123 5.71-1.175 8.695-1.077 3.409-1.23 6.09-1.195 9.656l.02 3.633.05 3.75.027 3.82c.024 3.102.057 6.203.098 9.305l1.977-.818c4.632-1.89 9.15-3.631 14.023-4.807 3.928-.891 3.928-.891 7-3.375h3l.244-1.728c.367-2.571.749-5.14 1.131-7.71l.383-2.72.39-2.588c.116-.79.23-1.582.35-2.396L211 148l2-1 2-3c-.281 2.627-.574 5.25-.875 7.875l-.238 2.262c-.66 5.636-.66 5.636-2.887 7.863-.332 2.751-.332 2.751-.319 6.01l-.06 3.822-.035 4.145a2902.532 2902.532 0 00-.187 15.365c-.04 3.787-.091 7.574-.141 11.361A8175.42 8175.42 0 00210 225h-7v-40h-18v14c-6.859-10.288-5.321-26.207-5.375-38.125l-.023-2.161c-.09-10.563 1.117-20.404 3.398-30.714z"/><path fill="#CB4068" d="M396 148h28v44l-7 1c-2.04 2.59-2.259 4.984-2.319 8.218l-.06 2.486-.035 2.655-.059 2.74c-.06 2.884-.106 5.767-.152 8.651l-.117 5.871c-.096 4.793-.18 9.586-.258 14.379-4.384-4.384-3.061-13.064-3.114-18.918 0-2.614.006-5.227.016-7.84l.005-4.194c.003-3.647.013-7.293.024-10.94.01-3.733.015-7.468.02-11.202.01-7.302.028-14.604.049-21.906l-3-1 3-1-1-3 1-5h-16l1-5z"/><path fill="#E3606B" d="M445 158l3.75.563c3.104.405 5.224.222 8.25-.563l3 2c.34 3.073.34 3.073.293 6.977l-.013 2.076a674.845 674.845 0 01-.092 6.572c-.016 1.484-.03 2.969-.042 4.453-.03 3.641-.089 7.28-.146 10.922h-23v-31h8v-2z"/><path fill="#E16579" d="M240 170h6v41h4c1.205-4.892 1.335-9.803 1.563-14.813l.13-2.677c.106-2.17.207-4.34.307-6.51 4.868 7.302 2.599 20.577.95 28.863-1.006 4.55-2.144 9.062-3.316 13.572-1.028 4.158-1.837 8.357-2.634 12.565-3.375.125-3.375.125-7 0l-2-2 1-1c-.327-2.001-.661-4-1-6a144.86 144.86 0 01-.038-6.357l.052-3.75.072-4.006.064-4.138c.046-2.878.095-5.757.147-8.636.066-3.697.124-7.393.178-11.09.043-2.842.09-5.684.139-8.526.023-1.364.044-2.728.065-4.093.028-1.898.064-3.796.1-5.694l.056-3.276C239 171 239 171 240 170z"/><path fill="#D25F74" d="M185 185h18c.023 5.66.043 11.32.055 16.98.005 1.926.012 3.853.02 5.78.013 2.764.018 5.53.023 8.295l.015 2.62c0 6.097 0 6.097-1.113 8.325h-15l.035-5.434.028-7.004.025-3.587.01-3.409.016-3.158c.16-2.36.16-2.36-1.114-3.408v19h-1v-35z"/><path fill="#CB5E7A" d="M414 192c3 0 3 0 8 1v71h-8v-72z"/><path fill="#FBAF53" d="M439 136h1c1.606 8.088 2.263 15.757 2 24h-5v31h23v1c-3.896.058-7.791.094-11.688.125-1.102.017-2.205.034-3.341.05l-3.233.02-2.967.032c-2.976-.244-5.03-1.083-7.771-2.227l-6-1v-41l2 4c2.706 1.495 4.239 2.123 7.313 1.625L436 153l1-4h2v-13z"/><path fill="#E33C71" d="M318.813 103c5.488 1.722 8.698 4.858 11.562 9.688C332 116 332 116 332 118l2.875-.188L338 118c2 3 2 3 2 6.438-1 3.562-1 3.562-3.813 5.874A347.006 347.006 0 01329 134l-1.938 1.688C325 137 325 137 322.373 136.582L320 136c-.182-1.134-.364-2.269-.55-3.438l-.762-4.562-.358-2.254c-.885-5.219-2.218-9.881-4.33-14.746l-2-1c.393-2.282.913-3.867 2.188-5.813C316 103 316 103 318.813 103z"/><path fill="#F2BD6A" d="M293 143l5 2v4l-3.438.813L291 151l-1 3c-1.89.676-1.89.676-4.25 1.313-3.64 1.454-4.568 2.293-6.246 5.917a143.233 143.233 0 00-2.14 7.458c-1.715 4.164-3.55 5.025-7.364 7.312-5.084 4.05-7.357 8.277-9.375 14.375l-.785 2.23A404.867 404.867 0 00258 198h-1l-.06-2.447c-.095-3.643-.205-7.285-.315-10.928l-.094-3.852-.117-3.671-.095-3.396c-.053-2.853-.053-2.853-2.319-4.706 4.75-1.125 4.75-1.125 7 0l-1 2c3.075-.776 3.075-.776 5-3l6 1 2-2-1-2a189.58 189.58 0 01-.063-7.625l.014-2.14c.012-1.745.03-3.49.049-5.235.857-.182 1.714-.364 2.598-.55 9.876-1.655 9.876-1.655 18.402-6.45z"/><path fill="#635273" d="M506 263h7v2h9v1h-8l-1 4h-3v5c-4.759.297-8.749.326-13.188-1.563-3.648-1.516-5.975-1.832-9.812-.437-2.464 2.205-2.464 2.205-4 5v4c-3.75 1.125-3.75 1.125-6 0a139.595 139.595 0 00-4-1h3v-2l-10-1 3.809-6.836c.756-1.374 1.49-2.761 2.191-4.164l-3-2h37v-2z"/><path fill="#C64658" d="M216 143l3 1 .332 2.117.48 2.758.458 2.742c.56 2.727.56 2.727 3.73 4.383.293 2.602.293 2.602.188 5.625l-.083 3.04L224 167h3v38h2l1 3 2 1 1 24 2 1v6c-3.17-4.136-4.125-6.2-4.098-11.445l.01-3.262.025-3.418.014-3.441c.012-2.812.028-5.623.049-8.434l-2.438-.813L226 208c-1.274-3.822-1.124-7.407-1.098-11.387l.005-2.476c.005-2.608.018-5.216.03-7.825.006-1.768.01-3.537.014-5.306.011-4.335.028-8.67.049-13.006h-12v3h8v1h-8l-1 10h10v1h-10l-1 41h-1a8099.2 8099.2 0 01-.104-24.148c-.01-3.737-.024-7.475-.047-11.212-.022-3.605-.034-7.21-.039-10.815a804.75 804.75 0 00-.021-4.131 781.33 781.33 0 01-.016-5.776l-.014-3.324C210 162 210 162 212 160c.352-2.462.352-2.462.438-5.25.333-4.703 1.085-7.766 3.562-11.75z"/><path fill="#77375A" d="M304 155l10 1v10h4c-.507 3.719-1.116 6.735-3 10l2.313-1.875c3.547-2.805 5.638-4.313 10.125-4.563 3.798-.326 5.618-1.07 8.562-3.562l3 1c-4.64 4.94-9.96 10.029-16.09 13.02-1.992.872-1.992.872-3.305 2.593-2.366 2.045-4.229 1.683-7.293 1.575l-3.011-.083L307 184v-1h5v-2l-1.75-.313c-2.688-.82-4.225-1.732-6.25-3.687-.625-2.625-.625-2.625-1-5l-2-1 1.715-.77 2.223-1.042 2.214-1.02c2.178-1.104 2.178-1.104 2.848-4.168h-2v-2l-14-3v-1l10-1v-2z"/><path fill="#5C4E6B" d="M490.563 227.938L493 228v2l1.793-.219c8.58-1.008 8.58-1.008 12.207-.781 1 1 1 1 1.114 3.408l-.016 3.158-.01 3.409-.026 3.588-.013 3.6c-.012 2.945-.028 5.891-.049 8.837l4 1v5l1.71-.52c2.48-.52 4.403-.449 6.915-.168.776.08 1.552.158 2.352.239C525 261 525 261 527 263h-21v2h-9v-1l2.438-.375L502 263l1-2-2-1h5v-4h-4v3h-3v-3l-5-1c-1-3-1-3 0-6 2 1 2 1 5 3 .918-4.641.918-4.641.375-9.25L499 241c1.438-1.75 1.438-1.75 3-3 1.14 3.422 1.098 6.087 1.063 9.688l-.028 3.574L503 254h2l1-19-5 1c-2.813-.438-2.813-.438-5-1v2l4 1h-4l.563 1.813C497 242 497 242 496 245h-5l-1 3h-2v-6h6l-1-3c.438-2.188.438-2.188 1-4h-6v-3l-5-1 1.938-.938c4.05-2.086 4.05-2.086 5.625-2.125z"/><path fill="#673158" d="M354 188h1l1 6 2-4h2a438.124 438.124 0 01-2 13h2l.367 1.715.508 2.222.492 2.215c.463 2.055.463 2.055 2.633 2.848.414 2.285.414 2.285.625 5.063l.227 2.785L365 222l1-4h2l-.035-2.555c-.01-1.095-.018-2.191-.027-3.32l-.036-3.305C368 206 368 206 369 204c1.828.035 1.828.035 4 1a56.007 56.007 0 012.75 7.438l.668 2.103C378 219.616 378 219.616 378 222h-2v-2c-3.994.57-6.578 1.929-10 4h-3l-1-2h-8v-12l-3 6h-1l1-16h-3l-2-8h2v5h3l3-9z"/><path fill="#772F54" d="M316 104l-1.438 1.313c-1.799 1.71-1.799 1.71-2.562 4.687.626.23 1.253.461 1.898.7 3.47 2.146 3.52 5.263 4.442 9.058 1.096 5.384 1.924 10.798 2.66 16.242 5.357-.645 7.424-1.898 11-6 .432 6.26-.073 9.09-4 14-3.875-1.875-3.875-1.875-5-3l-3.375-.438C316 140 316 140 313 138l-1 2-3-1 1-4h7l-3-2v-2l-6-1c-.027-2.23-.046-4.458-.063-6.688l-.035-3.761c.083-3.013.39-5.634 1.098-8.551h2v-5c-2.968 1.88-2.968 1.88-5.25 4-3.283 2.388-5.827 3.077-9.75 4 3.476-5.793 6.243-8.033 12.563-10.25 3.114-.68 4.546-.906 7.437.25z"/><path fill="#EEE6E7" d="M408 283h1c.027 2.583.047 5.167.063 7.75l.025 2.21c.016 3.537-.17 6.639-1.088 10.04a154.5 154.5 0 00-.563 4.75l-.253 2.422L407 312c-4.563.212-6.55-.22-11-2v-15l-2 1c-2.374.071-4.75.084-7.125.063l-3.883-.028L380 296v-2l-4-1 7-1 1-3 1 2c3.087-.765 3.087-.765 4.938-3.063C392 286 392 286 396 286v3h12l-1-5 1-1z"/><path fill="#EB8689" d="M396 170l14 1v6c-.957.09-.957.09-1.934.184l-2.503.254-2.497.246c-2.053.105-2.053.105-3.066 1.316l10 1v2h-13v2h13c.195 7.617.195 7.617 0 10-2 2-2 2-4.602 2.195l-3.023-.07-3.04-.055L397 196v9h13v2h-13v6h13v4h-13l-1 3v-50z"/><path fill="#44304E" d="M348 261l3 1 1 7-4 1v2h4c.337 1.437.67 2.874 1 4.313l.563 2.425C354 281 354 281 354 284l2 1-.508 1.594c-.833 4.07-.395 8.178-.234 12.312-.282 3.383-.974 4.654-3.258 7.094-2-2-2-2-2.266-3.875l.016-2.125-.016-2.125C350 296 350 296 352 294c.643-2.069.643-2.069 1-4l-2.688.875c-4.785 1.391-9.69 1.981-14.617 2.66-2.605.183-2.605.183-3.695 1.465-2.67.141-5.324.042-8 0l1-2c2.315-.71 4.586-1.317 6.938-1.875 10.284-2.092 10.284-2.092 19.062-7.125l-2.23-.148-2.957-.227c-.963-.07-1.926-.14-2.918-.21-2.91-.417-5.224-1.214-7.895-2.415.188-2.375.188-2.375 1-5 2.89-1.597 4.69-2 8-2l-.188-3.313C344 267 344 267 345.438 265.25L347 264l1-3z"/><path fill="#FDBA6A" d="M227 160c2.342 1.511 3.771 2.461 4.875 5.063L232 167l-2 2c-.245 2.769-.245 2.769-.125 5.996.015 1.198.03 2.396.047 3.631l.156 7.61.047 3.634.07 3.342C230 196 230 196 228 199l2 1c1.188 2.438 1.188 2.438 2 5l-1 2h3c.755-4.033 1.128-7.848 1.133-11.95l.004-3.318-.012-3.42.012-3.455-.004-3.306-.004-3.01c-.022-2.665-.022-2.665-1.129-5.541.813-2.625.813-2.625 2-5 2.848-1.424 5.328-1.17 8.5-1.188l3.531-.042C251 167 251 167 253 169h-16v70h-2v-5l-3-1v-24l-3-1v-3h-2v-38l-2-1v-4h2v-2z"/><path fill="#D73B6F" d="M348 174c4.747.365 8.212 1.054 12 4 2.767 3.69 3.986 7.522 5 12l-1 2h-4v-2h-2l-2 7h-1l-1-7-3 7h-3v-5l-2.313-.25C343 191 343 191 341.063 189.375 340 187 340 187 340.5 183.562c1.62-3.848 3.378-5.84 6.5-8.562l1-1z"/><path fill="#C96B72" d="M444 200h16v20l-7.75.125-2.42.055c-3.783.03-6.637-.046-9.83-2.18l2-2c.428-2.758.428-2.758.563-5.875.216-3.597.557-6.606 1.437-10.125zm-4 12l2 1-2 1v-2z"/><path fill="#9A355F" d="M326 150l-3 2v2l3 1c.707 2.234.707 2.234 1 5-1.363 2.203-1.363 2.203-3.313 4.25l-1.925 2.078C320 168 320 168 318 169v-3h-4v-10c-11.935-.56-23.434 2.315-35 5 .715-1.902.715-1.902 2-4 2.129-.941 2.129-.941 4.563-1.563 2.4-.56 2.4-.56 4.437-1.437l1-3v2l1.816-.656C303.68 149.006 314.752 149.72 326 150z"/><path fill="#E3D9D9" d="M233 288v8l-3 1v4h-2v7h-5l-1 6h-2l-.75-2.438L218 309l-4-1v-19l7.813-.5 2.448-.158c2.919-.185 5.814-.342 8.739-.342z"/><path fill="#EAB4BD" d="M234 269h6c.96 2.882 1.106 4.699 1.063 7.688l-.028 2.449L241 281c2.343-.256 4.678-.593 7-1l1-2c.087 4.104.14 8.208.188 12.313l.076 3.537.029 3.388.048 3.127C249 303 249 303 247.607 304.86 246 306 246 306 244 306c-2.998-2.815-4.257-4.938-4.39-8.988.026-1.442.073-2.884.14-4.325l.055-2.244c.047-1.815.118-3.629.195-5.443h-7c-.027-2.292-.046-4.583-.063-6.875l-.035-3.867C233 271 233 271 234 269z"/><path fill="#E04077" d="M322 151c5.53-.564 8.349.407 12.715 3.516C336 156 336 156 336 160l3 1 1 2 3.438 1.813c2.793 1.516 3.464 2 5 4.937L349 172h-2l-1 3-4-2 1-2-5 2-2-4 2-2c-3.25 1.088-3.25 1.088-6 3-1.412.184-2.83.322-4.25.438-3.553.367-6.588.783-9.75 2.562l-1 3h-2c1.132-5.658 4.095-8.353 8.223-12.07 1.904-2.068 2.504-3.159 2.777-5.93-1.007-3.022-1.79-3.886-4-6v-1z"/><path fill="#DE4570" d="M246 171h9v29h2l-2 8h-2v-18c-.249 5.04-.249 5.04-.478 10.08-.225 4.02-.735 7.237-2.522 10.92h-4v-40z"/><path fill="#BE5B77" d="M424 190h9c-3 2-3 2-5 2-1.104 3.584-1.157 6.96-1.205 10.696l-.03 2.012c-.032 2.186-.057 4.372-.081 6.558l-.063 4.556c-.055 3.992-.105 7.983-.153 11.975-.05 4.075-.106 8.15-.161 12.226A17445.7 17445.7 0 00426 264h-4v-71l-2-1h4v-2z"/><path fill="#CD8390" d="M376 263v2l3.75-.063c2.914-.005 5.46.133 8.25 1.063v2l-13 1 2 6v-2h6l1 2c2.698.639 5.334 1.168 8.063 1.625l2.298.406c1.879.331 3.759.651 5.639.969l-1-5h4v-5h3c.195 1.457.38 2.916.563 4.375l.316 2.46C407 277 407 277 406 279c-3.063.625-3.063.625-6 1v2h-2v-2h-9v2h-16l-2-4h-3l1-1c.244-2.777.384-5.552.523-8.336.765-4.274 2.128-5.664 6.477-5.664z"/><path fill="#625B72" d="M96 267h75v1h-12v2h3l1 4c-4.212 2.106-8.542 2.12-13.176 2.098l-3.506-.01-3.63-.026-3.69-.013c-3-.012-5.999-.028-8.998-.049l-1-7-33-1v-1z"/><path fill="#F3F2F6" d="M314 317h2c1.95 4.253 3.417 8.252 4.46 12.836.602 2.415 1.383 4.74 2.165 7.101 1.496 4.85 1.62 9.01 1.375 14.063h-14c.751-12.27.751-12.27 2-15.938 1.19-3.642 1.448-7.14 1.625-10.937l.117-2.086c.093-1.68.177-3.36.258-5.039z"/><path fill="#C0AFBB" d="M409 285h18l-1 7 11 2c-3.435 2.29-4.985 2.178-9 2l-1 4c-1.478.194-2.958.38-4.438.563l-2.496.316L418 301l-1-1a69.603 69.603 0 00-4.063-.563L409 299v-14z"/><path fill="#CA4166" d="M396 148h28v42h-1l-2-31c-4.972-.026-4.972-.026-9 2l2 5-3 2v-5l-3-1 3-1-1-3 1-5h-16l1-5z"/><path fill="#E36C73" d="M437 179h23v12h-23v-12z"/><path fill="#D86280" d="M414 192h1l1 36 1-34h1c1.186 7.45 1.127 14.812 1.098 22.344l-.005 4.136c-.003 3.603-.013 7.207-.024 10.81-.01 3.687-.015 7.374-.02 11.062A14201.2 14201.2 0 01419 264h-5v-72z"/><path fill="#DFCBCC" d="M370 292h1v19c-4.44 1.11-8.07 1.813-12.375 0L357 310l-1 3-.184-2.09A710.503 710.503 0 00354 293l12 1v2h4v-4z"/><path fill="#9F5777" d="M140 167h10c.023 9.483.04 18.967.052 28.45.005 4.404.012 8.807.023 13.21.011 4.247.017 8.494.02 12.741.002 1.623.005 3.245.01 4.868.008 2.268.009 4.535.009 6.803l.006 3.916C150 240 150 240 149 242h-19v-22l4-1 2 2h-5l.254 2.703.309 3.547.316 3.516C132 234 132 234 131 238h16v-70h-7v-1z"/><path fill="#C1ACBA" d="M455.813 278.375l2.06.133c4.993.358 4.993.358 6.127 1.492 1.666.04 3.334.043 5 0 .125 6.75.125 6.75-1 9-3.958.029-7.917.047-11.875.063l-3.418.025-3.262.01-3.015.016C444 289 444 289 442 288l-1 2 1-11c4.743-.988 8.988-.975 13.813-.625z"/><path fill="#EF8877" d="M370 198a80.24 80.24 0 0115 3c.027 2.938.047 5.875.063 8.813l.025 2.525.01 2.432.016 2.237C385 219 385 219 384 222h-6a4961.68 4961.68 0 01-4-10.875l-1.156-3.129-1.094-2.988-1.016-2.761C370 200 370 200 370 198z"/><path fill="#E0798F" d="M202 206h1c.029 3.125.047 6.25.063 9.375l.025 2.695.01 2.578.016 2.38C203 225 203 225 202 227h-15v-19h15v-2z"/><path fill="#E57989" d="M396 153h15v8l-2 1 .5 2.375C410 167 410 167 410 169h-14v-16z"/><path fill="#D7657C" d="M255 263c2.623 2.36 4.184 4.817 5.813 7.938l1.394 2.59c.793 2.472.793 2.472-.07 4.788L261 280h-5l-1 2-1-2a101.168 101.168 0 00-6-2v2l-7 1-.184-1.898-.254-2.477c-.08-.812-.162-1.624-.246-2.46-.207-2.208-.207-2.208-1.316-4.165l1-2a256.6 256.6 0 014.875.313l2.742.175C250 269 250 269 252 272l2-2h3l-1-1.813C255 266 255 266 255 263z"/><path fill="#523153" d="M326 182c4.302.5 6.559 3.057 9.625 5.938l2.914 2.714c6.962 6.642 9.128 12.434 9.594 22.114.125 6.413.035 12.823-.133 19.234h-2l-.076-2.048c-.116-3.067-.239-6.135-.361-9.202l-.12-3.223-.127-3.105-.11-2.857c-.157-2.834-.157-2.834-1.206-6.565v11c-2.431-2.431-2.68-4.558-3.426-7.836-.561-2.115-1.297-3.986-2.199-5.976C337 199 337 199 337 196c-2.958-4.042-5.396-5.3-10.188-6.125l-2.605-.32C322 189 322 189 320 186h8v-3l-2-1z"/><path fill="#FCC34C" d="M293 143l5 2v4l-3.438.875L291 151l-1 2h-6v2l-6 2-.25 3.875c-.262 2.21-.262 2.21-.75 4.125-2.063 1.5-2.063 1.5-4 2-1.533-3.065-1.103-6.268-1.063-9.625l.014-2.14c.012-1.745.03-3.49.049-5.235.857-.182 1.714-.364 2.598-.55 9.876-1.655 9.876-1.655 18.402-6.45z"/><path fill="#DE7A5D" d="M237 169c15 0 15 0 20 2l1 29h-3v-29h-15l-.06 5.628c-.068 6.139-.145 12.277-.228 18.416-.05 3.722-.096 7.443-.134 11.165a2415.93 2415.93 0 01-.136 10.776c-.019 1.37-.034 2.74-.045 4.11a799.23 799.23 0 01-.078 5.76l-.04 3.31C239 233 239 233 237 237v-68z"/><path fill="#6C536E" d="M128 168h2v82h14v1l-12 1 1 3h-4l-2 4 1-91z"/><path fill="#C44556" d="M216 143l3 1 .332 2.117.48 2.758.458 2.742c.56 2.727.56 2.727 3.73 4.383.416 3.696.13 7.271 0 11h-11l-2-6 1-1c.159-1.726.277-3.457.375-5.188.374-4.703 1.147-7.826 3.625-11.812z"/><path fill="#C7A5B3" d="M407 272h2v6l18-1v8c-2.98.027-5.958.047-8.938.063l-2.576.025-2.45.01-2.27.016C409 285 409 285 408 284a153.02 153.02 0 00-6.563-.063l-3.628.028L395 284v-2h-6v-2h9v2h2v-2l6-1 1-7z"/><path fill="#462E50" d="M306.5 161.063l1.5.937v2h2v2c-7.005 2.457-14.103 4.888-21.34 2.098-1.928-.953-3.801-2.016-5.66-3.098v-2c15.285-5.429 15.285-5.429 23.5-1.938z"/><path fill="#4B2B49" d="M308 136l1 3 2.938-.563L315 138l1 1 3.313.25c3.687.75 3.687.75 6.125 3.313L327 145l-2 3 3 3c-.715-.01-1.43-.02-2.168-.032-3.277-.042-6.555-.067-9.832-.093l-3.41-.05c-6.28-.038-11.567.437-17.59 2.175h-4v-3l3.438-.375L298 149l1-2v2l14-1 1-4h-2v-2h-2v-2h-2v-4z"/><path fill="#DA427C" d="M343 170v3l2 1c-1.175 2.883-2.293 4.272-4.625 6.438-2.631 2.33-2.631 2.33-2.688 5.375L338 188h2c3.115 4.153 3.115 4.153 2.688 7.313L342 197l-1.375-2.438c-2.806-4.28-6.73-7.387-10.578-10.707L328 182v-1l2.125.375c4.267-.557 6.146-3.224 8.875-6.375l-1.871 1.023c-5.703 3.004-10.783 4.851-17.129 5.977 2.727-2.848 5.707-4.827 9-7l2.5-2.313c2.5-1.687 2.5-1.687 5.625-1.312L340 172l3-2z"/><path fill="#BC5476" d="M186 201h16v1h-15v7h15v1h-15v6h15v7h-15v2c2.434 1.217 4.418 1.32 7.125 1.563l2.758.253L199 227l-2 3c-3.375.625-3.375.625-7 1l-2.125.625c-2.485.497-4.44-.016-6.875-.625v-4l4-1 1-25z"/><path fill="#DCB5B6" d="M362 281l1 2h8c.027 1.417.047 2.833.063 4.25l.035 2.39c-.094 2.267-.466 4.189-1.098 6.36h-4v-2l-12-1c1.12-5.604 1.12-5.604 4-7.688 3.013-1.975 3.013-1.975 4-4.312z"/><path fill="#C1778C" d="M216 267h2v4h11l-1-4h7l-2 10-5 1-2 2v-8c-7.842.565-7.842.565-15.625 1.625C208 274 208 274 206 273c-2.88-.233-5.741-.42-8.625-.563l-2.43-.13c-1.981-.107-3.963-.207-5.945-.307l4-2-6-1v-1l29 1v-2z"/><path fill="#A096AD" d="M116 242a99.984 99.984 0 015 0c1 1 1 1 1.098 3.504l-.035 3.059-.028 3.066L122 254h5v6l-4 1v-2h2l-1-4-1 3-3 1v2h-2v-5h-2v7l-1-2h-2l-1 3c-.235-5.755.125-10.48 2-16l1.125-3.438L116 242z"/><path fill="#DE416D" d="M318.813 103c4.063 1.275 6.082 3.117 9.187 6l-1 2c-3 1-3 1-6 1-2.363 2.808-2.363 2.808-1.54 5.855l.915 3.332c1.311 5.164 1.937 9.51 1.625 14.813l3 1-5-1c-.182-1.134-.364-2.269-.55-3.438l-.762-4.562-.358-2.254c-.885-5.219-2.218-9.881-4.33-14.746l-2-1c.393-2.282.913-3.867 2.188-5.813C316 103 316 103 318.813 103z"/><path fill="#715171" d="M163 219c-.023 3.418-.1 6.833-.188 10.25l-.017 2.934c-.223 7.192-.223 7.192-3.115 10.347L157 244l-1.95 1.266C150.223 248 150.223 248 148 248v-3h2l-1-5 1 2h2l1-3h3v-7h2v-12c3-1 3-1 5-1z"/><path fill="#42324F" d="M276 288c7.215-.355 13.124.84 20 3v2l1.772-.048c2.66-.062 5.318-.101 7.978-.14l2.79-.076 2.694-.029 2.476-.048c2.802.417 4.178 1.503 6.29 3.341-28.621.459-28.621.459-38-2l-2-2c-2.069-.643-2.069-.643-4-1v-3z"/><path fill="#DB6A7C" d="M410 163h1v39l-7-1c3-2 3-2 5-2l1-4-3-1h3v-7h-13v-1h13v-2h-13v-2h13v-2l-2.082.07-2.73.055-2.708.07C400 180 400 180 397 178c2.995-.872 5.636-1.108 8.75-1.063l2.422.028L410 177v-6h-13l-1-2h14v-2l-3-1h3v-3z"/><path fill="#C9AFB1" d="M189 283h8v16h-16v-4h8l1-5-3-1 3-2 1-3-2-1z"/><path fill="#EFE5E2" d="M396 286v3h11v4h-13v3h-14v-2l-4-1 7-1 1-3 1 2c3.087-.765 3.087-.765 4.938-3.063C392 286 392 286 396 286z"/><path fill="#A8869A" d="M428 275l13 1c.968 3.873 1.076 7.036 1 11-1.583.054-3.166.093-4.75.125l-2.672.07C432 287 432 287 428 285v-10z"/><path fill="#BB3A6B" d="M309 151h13l1 3 3 1c.813 2.125.813 2.125 1 5-1.444 2.301-3.109 4.016-5 6l-1-2-6 1v-8h2v-2h-5v-2l-3-1v-1z"/><path fill="#665678" d="M496 235h10c.027 2.792.047 5.583.063 8.375l.025 2.406c.025 5.992.025 5.992-1.088 8.219h-2l-.184-2.773-.253-3.602-.247-3.586c-.127-2.954-.127-2.954-1.316-5.039-1.25 2.873-1.25 2.873-.438 5.375.53 3.171-.178 4.776-1.562 7.625-1.938-.375-1.938-.375-4-1l-1-2-1 3v-7h3v-10z"/><path fill="#6A315B" d="M309 111l4 1v5l3 1c.168 1.625.334 3.25.5 4.875l.281 2.742c.285 3.102.019 5.384-.781 8.383l-2-1v-2l-6-1c-.027-2.23-.046-4.458-.063-6.688l-.035-3.761c.083-3.013.39-5.634 1.098-8.551z"/><path fill="#615571" d="M506 263h7v2h9v1h-8l-1 4h-3v5c-9.41.369-9.41.369-14-2a99.984 99.984 0 010-5c1.811-1.811 4.613-1.382 7.063-1.563l3.347-.253L509 266l-3-1v-2z"/><path fill="#7C3356" d="M258 196c2 2 2 2 2.375 4.563-.346 3.172-.802 4.51-2.188 7.25-3.82 7.99-4.434 17.209-5.746 25.882l-.504 3.243-.41 2.84C251 242 251 242 249 244c-2.5-7.5-.595-15.206 1.188-22.688l.672-2.898A159.45 159.45 0 01258 196z"/><path fill="#FBC95A" d="M333 154c1.813.25 1.813.25 4 1l1.313 2c1.664 2.392 1.664 2.392 5.375 2.75L347 160v2l4-2c1.125 1.563 1.125 1.563 2 4-.875 3.75-.875 3.75-2 7l2.336.516 3.039.734 3.023.703C362 174 362 174 363.375 175.97c.74 2.406.462 3.688-.375 6.031l-.875-2.188c-2.732-3.616-5.645-4.686-9.695-6.558-3.087-1.593-5.087-3.715-7.43-6.254a374.137 374.137 0 00-6-4c-2.663-2.204-3.25-3.677-4-7l-2-2z"/><path fill="#CD6A88" d="M194 249h12v2h2v6h-5v2h-9v-10z"/><path fill="#DD525D" d="M452 161v1l7 1v2l-5 1v1l-9 1 14 1v1h-22v-10c5.791-1.016 9.458-.963 15 1z"/><path fill="#C7838C" d="M403 268h3c.195 1.457.38 2.916.563 4.375l.316 2.46C407 277 407 277 406 279c-3.063.625-3.063.625-6 1v2h-2v-2h-9v2h-10c2-4 2-4 4-5l2 1v-2l3 .438c3.994.571 7.995 1.07 12 1.562l-1-5h4v-5z"/><path fill="#EDCFCB" d="M260 276l4 1 1 4h-3v9c-3.215 1.607-6.436 1.057-10 1l.063-3.75c.005-2.914-.133-5.46-1.063-8.25l2.188.563c2.975.462 4.944.313 7.812-.563l1-2-2-1z"/><path fill="#E7D7D7" d="M248 285h1c.08 2.938.14 5.874.188 8.813l.076 2.525.029 2.432.048 2.237c-.436 2.55-1.315 3.435-3.341 4.993-2 0-2 0-4.125-1.75-2.835-4.914-2.194-9.702-1.875-15.25l1 3 7-1v-6z"/><path fill="#B9B6C2" d="M112 268c2.73-.027 5.458-.047 8.188-.063l2.33-.025c3.967-.017 7.608.102 11.482 1.088v1h-5v4h20v1l7 1-1 2h-26l-2-5c-2.548-.894-2.548-.894-5-1v-2l-10-1v-1z"/><path fill="#878193" d="M96 267h43l-4 1v2l3.875-.563c3.875-.562 3.875-.562 6.125.563v4h-16v-5l-33-1v-1z"/><path fill="#85687E" d="M470 192h2v3h12v30h-3l1-28h-18v7h-1v-9h7v-3z"/><path fill="#452F4E" d="M336 203c2 1 2 1 2.619 2.82.605 3.46.484 6.93.443 10.43l-.013 2.258c-.012 1.83-.03 3.661-.049 5.492h2v13h-3l-2-12h-1v-10h-2l3-12z"/><path fill="#B09CAA" d="M427 280h1v5l13 2c1 4 1 4-.438 6.75L439 296l-2.125-1c-3.135-1.09-5.58-1.153-8.875-1v-2h-2l1-12z"/><path fill="#DD8F95" d="M241 273h4v3l3.938-.438 2.214-.246c1.86-.135 1.86-.135 2.848-1.316 2.67-.141 5.324-.042 8 0 0 3 0 3-1 6h-5l-1 2-1-2a101.168 101.168 0 00-6-2v2l-7 1v-8z"/><path fill="#FCAB6B" d="M214 144c.563 1.938.563 1.938 1 4l-1 1c-.284 2.808-.448 5.616-.621 8.434C213 160 213 160 211 162c-.332 2.751-.332 2.751-.319 6.01l-.06 3.822-.035 4.145a2902.532 2902.532 0 00-.187 15.365c-.04 3.787-.091 7.574-.141 11.361A8175.42 8175.42 0 00210 225h-7v-1h6l-.013-2.304a7450.55 7450.55 0 01-.09-21.665c-.011-3.711-.025-7.423-.048-11.134-.022-3.592-.034-7.184-.039-10.776-.005-2.014-.02-4.029-.037-6.043 0-8.074.188-16.219 2.227-24.078l2-1 1-3z"/><path fill="#D1C8CE" d="M468 280h1c.125 6.75.125 6.75-1 9-3.25.145-6.498.234-9.75.313l-2.79.126-2.694.05-2.476.079C448 289 448 289 444 284l24-1v-3z"/><path fill="#817092" d="M469 265h42c-3.173 3.173-7.016 2.45-11.348 2.656L497 268l-1 2 3 1c-5.415 1.23-5.415 1.23-8.375.063L489 270v-2l-20-2v-1z"/><path fill="#A73668" d="M368 202c2.063.438 2.063.438 4 1l-1 2-2-1 .035 2.047.027 2.703.036 2.672c-.09 2.36-.429 4.323-1.098 6.578h-2l-1 5h-1v-11l-3-1-1-7 3.438-.438c3.37-.174 3.37-.174 4.562-1.562z"/><path fill="#5E3254" d="M287 172l17 2v3l1.75.875L312 181v2c-6.287-.85-13.288-2.144-19-5v-2h-3v-2l-3-1v-1z"/><path fill="#ECCDBE" d="M270 287c2.702 2.702 3.904 4.73 4.195 8.578l-.07 2.672-.055 2.703L274 303h-8l4-4-5-2-1-9c2.875-.625 2.875-.625 6-1z"/><path fill="#F23C76" d="M331 156l3 1v3l5 1 1 3-9 3v2h-7c.628-2.929 1.586-5.361 3-8h2v-4l2-1z"/><path fill="#41324F" d="M299 189v2l-2.875.688c-3.28.964-3.28.964-4.195 3.625L291 198l-1 2.113c-3.507 7.713-4.214 15.546-5 23.887h-1c-.054-3.063-.094-6.125-.125-9.188l-.05-2.619c-.036-4.57.117-8.017 2.175-12.193.383-1.388.74-2.784 1.063-4.188C288 192 288 192 289 190c3.38-.626 6.562-1 10-1z"/><path fill="#F5BE54" d="M293 143l5 2v4l-3.438.875L291 151l-1 2h-6v2l-4-2v-5l2.336-.586 3.039-.789 3.023-.773c2.727-.676 2.727-.676 4.602-2.852z"/><path fill="#D59EA9" d="M220.188 271.938l3.292.027L226 272v8h-12l-1-5h-2v-2c3.285-1.095 5.737-1.1 9.188-1.063z"/><path fill="#FDB54D" d="M428.285 179.902L436 180v10l-11-1c-.098-6.152-.098-6.152 0-8 1-1 1-1 3.285-1.098z"/><path fill="#392545" d="M344 176c0 3 0 3-1.625 5.938-1.668 2.855-1.668 2.855-.813 5.187 1.42 1.978 1.42 1.978 3.5 3.688 2.59 2.924 2.644 5.367 2.938 9.187h3c.077 4.516.102 8.59-1 13h-1c-.75-3.663-1.238-6.424 0-10h-2v5h-1c-.182-.88-.364-1.76-.55-2.668-.252-1.161-.504-2.323-.762-3.52l-.739-3.48c-.92-3.23-2.164-5.517-3.949-8.332v-2h-2c-.938-2.063-.938-2.063-1-5 2.074-2.628 4.473-4.813 7-7z"/><path fill="#7B3A4C" d="M304 156c-2.918 1.945-4.625 2.453-8 3v1a646.822 646.822 0 01-4.75 1.5l-2.672.844C286 163 286 163 282 163l-1 4h-3l-1 4 5 2v1h-10l4-2c.685-2.858.685-2.858 1-6 .633-2.559.633-2.559 2-5 2.828-1.328 2.828-1.328 6.25-2.25l3.39-.953c5.209-1.236 10.003-1.925 15.36-1.797z"/><path fill="#DBB9B9" d="M207 279c2.94.255 5.876.528 8.813.813l2.525.212 2.432.245 2.237.206c2.411.634 3.4 1.648 4.993 3.524h-2v4l-13 1v-7h-3v-2l-3-1z"/><path fill="#6B3B60" d="M324 196c1.75.063 1.75.063 4 1 4.986 5.461 7.281 8.544 7 16-4.923-4.308-4.923-4.308-5.313-7.813L330 203h-2v-2l-5-1v2h-7v-3h-2v-2l1.934.035 2.503.028 2.497.035c2.058.135 2.058.135 3.066-1.098z"/><path fill="#FCCC56" d="M258.063 167.938L261 168l-1 3c3.075-.776 3.075-.776 5-3 2.938.375 2.938.375 6 1h3l-1 3-5-1v4l-2.813.813c-3.039 1.132-4.088 1.886-6.187 4.187l-.586-1.898-.789-2.477-.773-2.46c-.75-2.33-.75-2.33-2.852-4.165 1-1 1-1 4.063-1.063z"/><path fill="#C76E81" d="M402 271l1 2 3 1c-1.813.625-1.813.625-4 1l-3-2 1 5c-6.027.329-11.57-.113-17-3l-1-3 3.36.035c1.463.01 2.926.019 4.39.027l2.21.026c3.527.016 6.65-.135 10.04-1.088z"/><path fill="#D56D6C" d="M437 187h23v4h-23v-4z"/><path fill="#43334B" d="M355 302h1c.198 4.041.381 8.083.563 12.125l.17 3.46.146 3.36.143 3.079c-.023 3.094-.435 5.942-1.022 8.976h-3c-.226-3.77-.428-7.54-.625-11.313l-.195-3.248-.157-3.115-.158-2.872C352 310 352 310 354 307a75.316 75.316 0 001-5z"/><path fill="#D6B2AF" d="M228 277h5v11c-3.763 1.254-7.272 1.107-11.188 1.063l-2.271-.014c-1.847-.012-3.694-.03-5.541-.049v-1h12v-4l-5-1c2.647-1.46 3.894-2 7-2v-4z"/><path fill="#D2C0C8" d="M159 268c2.646-.027 5.292-.047 7.938-.063l2.287-.025c1.925-.009 3.85.036 5.775.088l1 1c1.849.234 3.705.413 5.563.563l3.066.253L187 270c-2.424 2.934-4.252 3.562-8 4-2.103.066-4.208.086-6.313.063l-3.238-.028L167 274v-5h-8v-1z"/><path fill="#D55F53" d="M226 167h1v38h2l1 3 2 1 1 24 2 1v6c-3.17-4.136-4.125-6.2-4.098-11.445l.01-3.262.025-3.418.014-3.441c.012-2.812.028-5.623.049-8.434l-5-2v-41z"/><path fill="#E7DBDC" d="M184 281l2 5-3 1v2l7 1v2l2 1h-3v2c-6.055.195-6.055.195-8 0l-2-2 2-1c-1.27-4.824-1.27-4.824-5-8a75.316 75.316 0 00-5-1v-1c4.386-.702 8.558-1.108 13-1z"/><path fill="#DAC9C5" d="M233 288v8c-2.647 1.46-3.894 2-7 2l-.563-1.938c-1.38-2.483-1.38-2.483-5.062-2.812L217 293v-1h9v-2l-10 1v-2c2.27-.168 4.542-.334 6.813-.5l3.832-.281A97.727 97.727 0 01233 288z"/><path fill="#FAD35B" d="M257 172h1l2 7 3-1c1.028 3.137.994 4.832-.215 7.89l-.83 2.15-.892 2.21-.881 2.258A674.437 674.437 0 01258 198h-1v-26z"/><path fill="#FCC659" d="M235 201h1v32l-3-1-1-25h2l1-6z"/><path fill="#E1C7C9" d="M389 282h6v2h12l1 5h-12v-3l-7 2v-6z"/><path fill="#D9ABB2" d="M407 272h2c.027 1.812.046 3.625.063 5.438l.035 3.058C409 283 409 283 408 284a153.02 153.02 0 01-6.563.063l-3.628-.028L395 284v-2h-6v-2h9v2h2v-2l6-1 1-7z"/><path fill="#62304E" d="M379 226c3.012 4.518 2.192 8.696 2 14l-.055 3.555c-.264 7.242-.89 12.945-5.945 18.445h-1c-.159-2.782-.108-4.73.941-7.336 3.532-8.889 3.529-19.23 4.059-28.664z"/><path fill="#FBA973" d="M181 180l2 1v3h21v25h-1v-24h-18v14c-2.438-3.657-2.672-6.933-3.125-11.188l-.262-2.271A871.086 871.086 0 01181 180z"/><path fill="#B98D9F" d="M458 240h6v14h-6v-14z"/><path fill="#F8EDF4" d="M184 207h1v18h-5v-9l-3-1c1.313-2.5 1.313-2.5 3-5h3l1-3z"/><path fill="#796984" d="M484.688 272.375L487 273l-2 2.25c-2.392 2.722-2.392 2.722-2 6.75-3.75 1.125-3.75 1.125-6 0a139.595 139.595 0 00-4-1h3v-2l-6-2c2.223-1.235 4.051-2.01 6.563-2.5 3.391-.696 4.566-2.622 8.125-2.125z"/><path fill="#632849" d="M336 166l3 1c-6.677 7.107-13.396 12.616-23 15 3.354-7.601 12.088-11.112 19-15l1-1z"/><path fill="#ED8054" d="M380 49c6.172 3.22 12.012 7.113 17 12v3h-3v-2l-3.875.125c-2.18.07-2.18.07-4.125-.125l-2-2c.375-2.625.375-2.625 1-5l-3-1 1-2-3-1v-2z"/><path fill="#B93C70" d="M337 177l3 4-2 2c-.167 2.584-.167 2.584 0 5h2c3.115 4.153 3.115 4.153 2.688 7.313L342 197l-1.375-2.438c-2.806-4.28-6.73-7.387-10.578-10.707L328 182v-1l2.25.25c3.532-.321 4.516-1.603 6.75-4.25z"/><path fill="#D87E7E" d="M444 205h16v6h-16l1-2-1-4z"/><path fill="#CD4069" d="M212 183l10 1v1h-9c-.167 2.416-.167 2.416 0 5 2.398 2.398 3.333 2.343 6.625 2.625l2.477.227L224 193v3h-11l-1 6h12v1l-13 1c-.027-3.125-.047-6.25-.063-9.375l-.025-2.695-.01-2.578-.016-2.38C211 185 211 185 212 183z"/><path fill="#CD5553" d="M396 148h28v42h-1v-41l-26 1v3h-2l1-5z"/><path fill="#E8A167" d="M223 62c0 3.707-1.328 4.694-3.691 7.379-1.885 2.335-3.073 4.9-4.309 7.621l-1 2h-5v2h-2v3h-2v4h-2v2l-3 1c1.45-4.108 3.398-7.503 6-11h2l.797-1.758C212.15 71.993 217.963 66.914 223 62z"/><path fill="#E25D87" d="M213 170h11v8h-11v-8z"/><path fill="#ECE6E8" d="M465 287h4v3l-3.14.113c-1.37.066-2.74.132-4.11.2l-2.066.068c-4.284.229-6.403.96-9.684 3.619-2.36.293-2.36.293-4.75.188l-2.422-.083L441 294l1-6h23v-1z"/><path fill="#C7677E" d="M376 263v2l3.75-.063c2.914-.005 5.46.133 8.25 1.063v2l-13 1 1 5-4-1-2-7c2.625-3 2.625-3 6-3z"/><path fill="#524C66" d="M116 242h5v13h-6a700.574 700.574 0 01-.063-4.813l-.035-2.707C115 245 115 245 116 242z"/><path fill="#D36C8B" d="M187 210h15v5h-15v-5z"/><path fill="#CD6281" d="M187 203h15l1 3-1 2h-15v-5z"/><path fill="#E38581" d="M440 193h20v6h-17l-1-3h17v-2h-19v-1z"/><path fill="#8E3B60" d="M290 151l1 2c5.578.125 5.578.125 11-1v3l-3.313-.188c-3.587-.246-3.587-.246-5 1.594-2.492 2.354-5.056 2.592-8.375 3.281l-3.574.762L279 161c1.006-2.676 1.542-3.779 4.164-5.047l2.461-.703 2.477-.734L290 154v-3z"/><path fill="#D9ABAD" d="M362 281l1 2h8l-1 6h-15l5-5 2-3z"/><path fill="#F39E56" d="M218 136h1v6l4-1v5h-2c.344 2.473.344 2.473 1 5l2 1c2.75 4.63 1.817 8.931 1 14l3 1h-4l-.113-2.336-.2-3.039-.175-3.023L223 156l-3-2c-.66-2.348-.66-2.348-1.063-5.063-.36-2.651-.36-2.651-.937-4.937l-2-1v-5h2v-2z"/><path fill="#6F335D" d="M326 182c2.886.398 3.822.79 5.75 3.063L333 187h-2l-1 2 2.188.125c4.012 1.248 5.41 3.5 7.812 6.875 1.375 2.688 1.375 2.688 2 5l-1 3c-.23-.52-.461-1.039-.7-1.574-2.155-4.611-4.122-8.338-8.3-11.426-2.598-.673-5.13-1.118-7.793-1.445C322 189 322 189 320 186h8v-3l-2-1z"/><path fill="#EFB96C" d="M183 128h1c.054 2.375.094 4.75.125 7.125.017.665.034 1.33.05 2.016.032 3.136-.118 5.696-1.161 8.668-1.113 3.503-1.33 6.451-1.428 10.12l-.117 3.907-.094 4.039-.117 4.11c-.094 3.338-.18 6.676-.258 10.015h-1c-.076-4.55-.13-9.098-.165-13.647-.015-1.54-.035-3.08-.061-4.62-.183-10.948.805-21.049 3.226-31.733z"/><path fill="#EBD5C8" d="M266 306h7v19l-7-1v-1h5c-.348-1.975-.348-1.975-1-4l-2-1v-2h2c-.276-1.94-.276-1.94-1-4l-3-2 2-2-2-2z"/><path fill="#DE6F80" d="M396 170l14 1v5h-14v-6z"/><path fill="#D55C58" d="M246 170c1.646-.027 3.292-.046 4.938-.063l2.777-.035C256 170 256 170 257 171c.159 2.144.251 4.293.316 6.441l.127 3.955.12 4.167.13 4.177c.107 3.42.209 6.84.307 10.26h-3v-29h-9v-1z"/><path fill="#E58C67" d="M326 29v1l-2.307.06c-3.46.095-6.92.205-10.38.315-1.199.03-2.397.062-3.631.094l-3.506.117-3.222.095c-3.01.325-5.177 1.164-7.954 2.319-2.312.319-2.312.319-4.645.414l-2.548.117-2.62.094-2.677.117c-2.17.094-4.34.177-6.51.258 14.36-7.66 34.349-5.342 50-5z"/><path fill="#B595AB" d="M449 272h4v5h7l1 2-2.598-.035c-5.91-.047-11.584-.047-17.402 1.035v-4l7-1 1-3z"/><path fill="#FBF0E4" d="M441 144c2.59 2.59 2.374 4.027 2.625 7.625l.227 3.04L444 157h2v-3h3v2l3 1 2-2c3.125.375 3.125.375 6 1l-1 3c-1.114-.03-1.114-.03-2.25-.063-2.662-.066-2.662-.066-4.75.688-2.785.522-4.49-.44-7-1.625v2h-3l-1-16z"/><path fill="#615472" d="M124 255l2 1-1 3h-2v2h5l-1 3h-13l1-3c.348-1.664.684-3.33 1-5h2v5h2l-1-3 1.938-.375L123 257l1-2z"/><path fill="#BB464D" d="M348 169l2.063 1.813c3.17 2.36 6.314 3.644 9.937 5.187 2.526 2.107 3.669 4.117 4.86 7.16l.94 2.404.95 2.499.996 2.51c1.772 4.594 1.772 4.594 2.254 6.427l-1 2c-2-1-2-1-2.71-2.969-.22-.835-.44-1.67-.665-2.531-2.416-9.142-2.416-9.142-7.938-16.5-4.193-1.56-8.233-2-12.687-2l1.5-1.875c1.692-1.964 1.692-1.964 1.5-4.125z"/><path fill="#FDC252" d="M227 160c2.342 1.511 3.771 2.461 4.875 5.063L232 167l-2 2c-.279 2.817-.279 2.817-.195 6.102l.02 3.671.05 3.852.027 3.875c.024 3.167.057 6.333.098 9.5l-2 1v-31h-3v-4h2v-2z"/><path fill="#833458" d="M369 204c1.828.035 1.828.035 4 1a56.007 56.007 0 012.75 7.438l.668 2.103C378 219.616 378 219.616 378 222h-2v-2l-3-1-.438-3.438c-.174-3.37-.174-3.37-1.562-4.562l-2 2c-1.125-6.75-1.125-6.75 0-9z"/><path fill="#DC4C58" d="M328 111c2.83 2.83 3.376 3.381 4 7l2.875-.188L338 118c2 3 2 3 1.875 6.5-.875 3.5-.875 3.5-2.938 5.438L335 131l-2-1c2.007-3.01 2.839-3.63 6-5-3.08-3.672-5.248-4.568-10-5l-1-9z"/><path fill="#9E5B7D" d="M432 265v5h-5v5l-5-1c.586-6.152.586-6.152 1-8 2.957-1.478 5.742-1.06 9-1z"/><path fill="#A74E71" d="M202 261l1.375 1.875c3.81 3.085 7.859 3.434 12.625 4.125v2c-4.954 1.055-9.378.956-14.375.563l-2.23-.159A942.965 942.965 0 01194 269c2.677-2.098 4.622-3.397 8-4v-4z"/><path fill="#D14C6C" d="M413 200h1v38c-2.354-2.354-2.279-2.93-2.414-6.133l-.117-2.441-.094-2.551-.117-2.574c-.095-2.1-.177-4.2-.258-6.301h2v-18z"/><path fill="#D3787C" d="M444 200h16v4h-16v-4z"/><path fill="#DDC9C8" d="M373 286h6v2l1.938.813C383 290 383 290 384 293l-11 1v-8z"/><path fill="#F6AB57" d="M188 112h1c1.111 4.445 1.294 8.444 1 13-1.438 2-1.438 2-3 3h-1l-.148 1.934-.227 2.504-.21 2.496L185 137l-2 1c.302-9.238 1.933-17.285 5-26z"/><path fill="#D7547E" d="M213 161h10l1 6h-11v-6z"/><path fill="#EFB75C" d="M332 132h2c.75 3.188.75 3.188 1 7-1.813 2.5-1.813 2.5-4 5-.889 2.317-1.43 4.575-2 7l-5-2 1.496-2.195 1.942-2.93 1.933-2.883c1.683-3.09 2.263-5.516 2.629-8.992z"/><path fill="#E9885C" d="M249 44c0 3 0 3-1.938 5.5-3.358 2.741-6.05 3.712-10.171 4.824-2.092.502-2.092.502-2.891 2.676a264.271 264.271 0 01-5 3l-2 2-3-1c8.004-6.416 15.966-12.084 25-17z"/><path fill="#E2D7D6" d="M188.313 275.938l3.8.027L195 276v1l-8 1v2a803.48 803.48 0 01-7.75.625l-2.21.195c-4.288.312-6.079.16-10.04-1.82l9-1v-1c4.156-1.01 8.044-1.102 12.313-1.063z"/><path fill="#B1809B" d="M453 270l1 2h-5v3h-14l2-2-5-1v-1l21-1z"/><path fill="#72364E" d="M316 104c-2 2-2 2-4.813 2.313-3.364.424-3.364.424-5.625 3.124-3.188 3.189-5.231 3.629-9.562 4.563 3.476-5.793 6.243-8.033 12.563-10.25 3.114-.68 4.546-.906 7.437.25z"/><path fill="#E0B4B5" d="M248 278h1c.25 6.625.25 6.625-2 10-3.125.188-3.125.188-6 0v-7l7-1v-2z"/><path fill="#544968" d="M143.547 267.121l2.558.147 2.645.17 2.691.158c2.187.129 4.373.264 6.559.404l-1 3-8-2v5h-4v-4h-10v-2c2.978-.881 5.453-1.067 8.547-.879z"/><path fill="#E77A8C" d="M407 163h3v6h-14v-4h11v-2z"/><path fill="#492E4D" d="M265 184l9 1 1 3-8-1v8l-5 1c-.295-5.023.015-7.895 3-12z"/><path fill="#EF5E6F" d="M440 165h19v4h-20v-1l6-1-5-1v-1z"/><path fill="#87345C" d="M327.188 169.875L331 170c-10.244 8.11-10.244 8.11-15 7.813l-2-.813v-5h3l-2 4 2.313-1.875c5.554-4.392 5.554-4.392 9.875-4.25z"/><path fill="#8C3963" d="M315 149.875l3.215.027c2.595.024 5.19.056 7.785.098v1h-22v5l-10 1 1-3 7 1v-3l-5 2-2-2c6.766-2.066 12.956-2.24 20-2.125z"/><path fill="#61315A" d="M317 134h2l.688 1.938c1.165 2.334 1.165 2.334 3.937 2.812L326 139v3c-1.606-.283-3.21-.577-4.813-.875l-2.707-.492C316 140 316 140 313 138l-1 2-3-1 1-4h7v-1z"/><path fill="#D6C1C3" d="M188 281v3h3c-.313 1.875-.313 1.875-1 4-3.228 2.152-4.284 2.2-8 2l.125-2.875c.225-3.227.225-3.227-2.125-5.125 2.892-.826 4.887-1 8-1z"/><path fill="#F2D9DA" d="M233 277h7v8h-7v-8z"/><path fill="#CE8290" d="M403 268h3c.195 1.457.38 2.916.563 4.375l.316 2.46C407 277 407 277 406 279c-3.477 1.417-6.403.736-10 0l4-1-1-5h4v-5z"/><path fill="#7D6E8C" d="M503 235h3c.027 2.792.047 5.583.063 8.375l.025 2.406c.025 5.992.025 5.992-1.088 8.219h-2v-19z"/><path fill="#F0E1DA" d="M265 313h3v5l4 1-2 6h-4l-1 3v-15z"/><path fill="#CA9199" d="M228 267h7l-2 10h-5v-10z"/><path fill="#DF517A" d="M213 186h11v5h-12l1-5z"/><path fill="#CF536A" d="M405.125 148.938l3.32.027L411 149v4h-14v-3c2.765-1.382 5.046-1.095 8.125-1.063z"/><path fill="#BA3869" d="M316 114l3 1a52.838 52.838 0 013 21l3 1-5-1-.621-3.543a122638.571 122638.571 0 00-1.225-6.975c-.675-3.837-1.366-7.666-2.154-11.482z"/><path fill="#C394A6" d="M175 268c9.82-.34 19.29.712 29 2v1l-22 1v-1l-7-2v-1z"/><path fill="#EE838F" d="M397 213h13v4h-13v-4z"/><path fill="#EE8590" d="M396 176h14v1c-.957.09-.957.09-1.934.184l-2.503.254-2.497.246c-2.053.105-2.053.105-3.066 1.316l10 1v2h-14v-6z"/><path fill="#EC7F53" d="M360 39c4.026.6 7.018 1.893 10.563 3.875l2.816 1.555A62.81 62.81 0 01380 49c-4.86-.607-8.74-2.728-13-5l1 2a128.606 128.606 0 01-7-2l-1-2h2v-2l-2-1zm0 6h2l-1 2-1-2z"/><path fill="#CE5572" d="M413 250h1v12l-3-4-1.242 1.531-1.633 1.969-1.617 1.969L405 265h-2c1.621-3.565 3.76-6.59 6.063-9.75l2.16-2.984L413 250z"/><path fill="#E24469" d="M322 151c5.53-.564 8.349.407 12.715 3.516C336 156 336 156 336 160h-2l-1-3-3.25-.25c-4.024-.805-5.273-1.58-7.75-4.75v-1z"/><path fill="#E7E7E6" d="M128 283h23v1h-18v2l3 1v2h-8v-6z"/><path fill="#C99BA0" d="M207 274l6 1 1 5h13l1-2v3c-2.542.054-5.083.094-7.625.125l-2.16.05c-4.476.042-7.994-.484-12.215-2.175l1-5z"/><path fill="#FCBB6B" d="M344 165l8 1-1 5 2.336.516 3.039.734 3.023.703C362 174 362 174 363.375 175.97c.74 2.406.462 3.688-.375 6.031l-.875-2.188c-2.728-3.61-5.633-4.68-9.676-6.55-3.79-1.953-6.516-4.396-8.449-8.262z"/><path fill="#F9EBE5" d="M262 281c3.693.923 5.296 1.49 8 4v3h-6l-1 3h-1v-10z"/><path fill="#DCACB4" d="M213 276h13v4h-12l-1-4z"/><path fill="#8F2D5A" d="M354 188h1l1 6 2-4h2a438.124 438.124 0 01-2 13l-1-2-3 1c-.195-1.958-.38-3.916-.563-5.875l-.316-3.305C353 190 353 190 354 188z"/><path fill="#FCBD6E" d="M364 183h3a2520907542.694 2520907542.694 0 013.125 9.18C371 195 371 195 371 197h11v3c-8.986-1.078-8.986-1.078-13-3-1.289-2.5-2.11-4.479-2.875-7.125l-.64-1.996A234.466 234.466 0 01364 183z"/><path fill="#672951" d="M330 186c5.82 2.054 8.236 4.16 12 9h2l-1 7c-2.268-1.928-3.632-3.991-5.063-6.563-2.168-4.102-2.168-4.102-6.062-6.062L330 189v-3z"/><path fill="#FEEAD9" d="M308.438 27.375l3.373.172c2.73.14 5.46.292 8.189.453v1l-1.753.076C303.1 29.706 303.1 29.706 288 31c1-2 1-2 3.785-3.148 5.477-1.43 11.06-.809 16.652-.477z"/><path fill="#723353" d="M250 245c3.161 1.37 3.993 1.99 6 5 .598 2.305.598 2.305 1.063 4.875l.472 2.555L258 260c.33 1.667.663 3.334 1 5l-2 1c-1.948-3.981-3.151-7.192-3.5-11.625-.306-3.81-1.18-6.248-3.5-9.375z"/><path fill="#F2EEEE" d="M407 305c1.044 3.133.934 3.99 0 7-4.219.196-7.17-.198-11-2v-3h10l1-2z"/><path fill="#D14076" d="M343 170v3l2 1c-1.049 2.622-1.65 3.794-4.125 5.25L339 180c-.563-1.938-.563-1.938-1-4l1-1-1.875-.938L333 172c2.892-.826 4.887-1 8-1l2-1z"/><path fill="#6A3054" d="M304 156c-2.918 1.945-4.625 2.453-8 3v1l-12 3v-2l-2-1c2.54-.676 5.081-1.34 7.625-2l2.16-.578c4.173-1.072 7.867-1.641 12.215-1.422z"/><path fill="#E2D0CE" d="M214 289h2v2l3-1a194.46 194.46 0 017 0v2l-2 1v2h-10v-6z"/><path fill="#C8626C" d="M444 216h15v3l-15 1v-4z"/><path fill="#F2F2F2" d="M133 284h18v1h-7v2c-8.571 1.429-8.571 1.429-12-1l1-2z"/><path fill="#E76388" d="M218.625 197.938l2.477.027L223 198l1 4h-12v-3c2.405-1.203 3.95-1.1 6.625-1.063z"/><path fill="#CB3B6E" d="M216 148c2 2 2 2 2.125 4.625L218 155h2v2h2v3h-7c-.082-4.161.018-7.947 1-12z"/><path fill="#EEBDC3" d="M371 275c2.094 3.402 2.18 6.053 2 10l-10-2v-3l3.438-.813L370 278l1-3z"/><path fill="#865276" d="M450 251c1.024 3.176 1.123 3.737-.375 6.938L448 261l-.5 2.625c-.582 2.764-1.686 4.246-3.5 6.375l-4-1 1.375-1.188c1.928-2.15 2.574-4.124 3.625-6.812a295.94 295.94 0 012.625-5.313l1.352-2.675L450 251z"/><path fill="#EB688F" d="M213 225h11v4h-11v-4z"/><path fill="#E9648A" d="M213 214h11v4h-11v-4z"/><path fill="#E27274" d="M373 205h11v4l-10 1-1-5z"/><path fill="#E3A562" d="M297 109l2 1-1.059 1.547c-4.007 6.402-4.802 11.97-4.941 19.453l-2-1c-.511-14.12-.511-14.12 4.125-19.438L297 109z"/><path fill="#FDF1E0" d="M231 51c2.625.375 2.625.375 5 1-2.751 2.852-5.603 5.344-8.75 7.75l-2.422 1.86L223 63l-2-3h2v-2l5-1 .375-1.875C229 53 229 53 231 51z"/><path fill="#543E56" d="M353 291h1c.25 1.747.474 3.498.688 5.25l.386 2.953c-.087 3.28-.882 4.43-3.074 6.797-2-2-2-2-2.313-5.813.083-3.784.942-6.152 3.313-9.187z"/><path fill="#E8D9DA" d="M397 289h10v4h-11l1-4z"/><path fill="#BF7A90" d="M414 272h8v2l2 1c-2.765 1.382-5.046 1.095-8.125 1.063l-3.32-.028L410 276l-1-2h5v-2z"/><path fill="#CAC6D0" d="M112 268c2.73-.027 5.458-.047 8.188-.063l2.33-.025c3.967-.017 7.608.102 11.482 1.088v1h-5v5l-2-2c-2.57-.648-2.57-.648-5-1v-2l-10-1v-1z"/><path fill="#685879" d="M496 235h7v6l-2-2-1 6h-3l-1-10z"/><path fill="#7B6685" d="M488 235h6v7h-6c-.934-3.01-1.044-3.867 0-7z"/><path fill="#D7668C" d="M187 224h15v3h-15v-3z"/><path fill="#E5855A" d="M326 30c9.222.338 17.23 2.21 26 5-2.742.825-3.712 1.1-6.5.125-4.258-1.369-8.247-1.555-12.695-1.781-2.737-.336-4.455-.95-6.805-2.344v-1z"/><path fill="#F7C878" d="M181 180l2 1v3h2v15c-2.438-3.657-2.672-6.933-3.125-11.188l-.262-2.271A871.086 871.086 0 01181 180z"/><path fill="#F2B767" d="M439 136h1c1.515 7.753 2.28 15.1 2 23h-2c-.868-5.202-1.125-10.17-1.063-15.438l.014-2.216c.012-1.782.03-3.564.049-5.346z"/><path fill="#F6B54E" d="M290 125h1c2.271 5.395 2.204 10.262 2 16l-4-2 1-6-2-1 1-3c.342-1.331.678-2.664 1-4z"/><path fill="#E67B93" d="M397 156h13v2c-3.204 2.136-4.02 2.231-7.688 2.125l-2.449-.055L398 160l1-2-2-2z"/><path fill="#F3D2C5" d="M265 297l5 1v3l-2 1 5 1v2h-8v-8z"/><path fill="#E5C9C5" d="M213 285h13v3l-13 1v-4z"/><path fill="#452849" d="M343 204c2 1 2 1 2.619 2.724.436 2.606.493 5.055.479 7.698l-.01 3.105-.026 3.223-.013 3.27c-.012 2.66-.028 5.32-.049 7.98h-1l-.184-3.078C344.313 220.605 343.74 212.3 343 204z"/><path fill="#E36D62" d="M370 198c4.69.566 9.345 1.185 14 2v2l-13 1-1-5z"/><path fill="#E3C1C0" d="M357 293c1.525.09 3.047.245 4.563.438l2.503.308L366 294v2c-6.4 3.077-6.4 3.077-9.438 2.688L355 298c.875-3.875.875-3.875 2-5z"/><path fill="#DD4174" d="M231 228c.466 3.181.51 5.253-1.336 7.957A100.963 100.963 0 01225 241l-2-3 2-2 .938-2.438C228.244 228 228.244 228 231 228z"/><path fill="#A53E70" d="M335 182l3 1v5h2c3.115 4.153 3.115 4.153 2.688 7.313L342 197l-1.688-2.688c-2.09-3.155-4.558-5.71-7.312-8.312h2v-4z"/><path fill="#A54970" d="M178 224c1.945-.293 1.945-.293 4.125-.188L186 224l-1 3h-4v4l5-1v3l-6-1v-3l-4-2 2-3z"/><path fill="#F7C37A" d="M257 172h1l1 17 2-2c-.282 1.46-.576 2.918-.875 4.375l-.492 2.46C259 196 259 196 257 198v-26z"/><path fill="#6D1F45" d="M344 176c0 3 0 3-1.625 5.875-1.73 3.033-1.73 3.033-.563 6L343 190h-3v-2h-2c-.938-2.063-.938-2.063-1-5 2.074-2.628 4.473-4.813 7-7z"/><path fill="#E04768" d="M340 164c3.354.599 5.499 1.671 8 4 .75 2.188.75 2.188 1 4h-2l-1 3-4-2 2-5-2-2-2 1v-3z"/><path fill="#EB9254" d="M223 62c0 3.707-1.328 4.694-3.691 7.379-1.885 2.335-3.073 4.9-4.309 7.621l-1 2h-3c2.489-7.051 6.685-11.926 12-17z"/><path fill="#E5758E" d="M373 263h3v2l5.86-.195C384 265 384 265 388 267h-17l2-4z"/><path fill="#5F4D6E" d="M129 250h15v1l-12 1 1 3-3 1-1-6zm-2 4l2 1-2 4v-5z"/><path fill="#5E5168" d="M502 229a99.984 99.984 0 015 0c1 1 1 1 1.098 4.379a584.098 584.098 0 01-.036 4.184l-.013 2.154c-.012 1.76-.03 3.522-.049 5.283l-2 1c-.103-5.126-.036-9.95 1-15h-2v2c-2-1-2-1-3-4z"/><path fill="#492D4D" d="M254 220h1c.807 5.478 1.443 10.562 0 16-2.063 1.438-2.063 1.438-4 2 .676-6.082 1.736-12.013 3-18z"/><path fill="#825A75" d="M166 214v2l5-2 1 3c-2.332.673-4.665 1.338-7 2l-2.313.688C161 220 161 220 159 219c1.353-4.059 2.725-5 7-5z"/><path fill="#E16D8D" d="M186 195h16v1h-12v2h11v1h-14l-1-4z"/><path fill="#2F253B" d="M354 280l3 1c2.143-.39 2.143-.39 4-1 0 4 0 4-1.5 5.75L358 287l-3-1-1-6z"/><path fill="#FEC860" d="M394 172h1v20h-1v-5l-2-1h2v-3h-2v-7h2v-4z"/><path fill="#78264E" d="M338 174l2 1c-1.657 2.849-3.326 5.046-6 7-4.065.615-7.92.416-12 0 2.193-2.193 3.395-2.57 6.313-3.438 3.59-1.125 6.466-2.61 9.687-4.562z"/><path fill="#CC9CA3" d="M362 281l1 2h8c-2.052 2.248-3.007 3.002-6 4-2.333.04-4.667.044-7 0l4-6z"/><path fill="#DD8C96" d="M258.188 273.938L262 274l1 2-6 1v2l-7-2c1.73-3.46 4.714-3.12 8.188-3.063z"/><path fill="#D26988" d="M210 248l4 1v8h-4v-9z"/><path fill="#DB5A6D" d="M238 234h1v5l2 1-1 1 3 2h-5v13h-1a857.23 857.23 0 01-.625-8.188l-.195-2.33c-.3-4.363-.275-7.493 1.82-11.482z"/><path fill="#E55983" d="M212 230h12v3h-12v-3z"/><path fill="#60284B" d="M327 175v3a418.864 418.864 0 01-4.375 2.063l-2.46 1.16L318 182l-2-1c5.846-6 5.846-6 11-6z"/><path fill="#EA7E8C" d="M396 170l14 1v2h-11v2h-3v-5z"/><path fill="#ED9E5F" d="M409 75c3.98 2.875 6.436 5.821 9 10l-1 2c-1.86-.223-1.86-.223-4-1-1.266-1.996-1.266-1.996-2.25-4.438l-1.016-2.433C409 77 409 77 409 75z"/><path fill="#DC9DA1" d="M248 275h2v2l2.375.438C255 278 255 278 257 279v-2h5l-1 3h-5l-1 2-1-2c-1.883-.903-1.883-.903-4.063-1.625-.733-.26-1.466-.52-2.222-.79-.566-.192-1.132-.386-1.715-.585l2-2z"/><path fill="#90879B" d="M114 248h1v8h1v7l-1-2h-2l-1 3c-.236-5.778.132-10.513 2-16z"/><path fill="#6A3F41" d="M264 181c1.22 4.006.418 6.06-1 10-.37 1.994-.713 3.993-1 6l-3 1c.466-6.401 2.147-11.268 5-17z"/><path fill="#EB875D" d="M264 38l-1 4a310.5 310.5 0 01-4.25 1.063l-2.39.597c-2.464.355-4.016.109-6.36-.66 1.956-.838 3.915-1.67 5.875-2.5l3.305-1.406C262 38 262 38 264 38z"/><path fill="#FCF5EE" d="M263 290c2 2 2 2 2.195 5.914a373.15 373.15 0 01-.07 4.711l-.027 2.43c-.024 1.982-.06 3.963-.098 5.945h-1l-1-7h-1a920.276 920.276 0 01-.063-5.438l-.035-3.058C262 291 262 291 263 290z"/><path fill="#E5C2C4" d="M240 281h1v7l7-1v4l-7 1c-1.283-3.85-1.066-6.947-1-11z"/><path fill="#C4B5C0" d="M442 284l6 1v1l8 1v1c-1.958.195-3.916.38-5.875.563l-3.305.316C444 289 444 289 442 288l-1 2 1-6z"/><path fill="#945776" d="M459 221h1v19l-3 1c-.625-1.813-.625-1.813-1-4l2-3c.46-3.198.46-3.198.625-6.688l.227-3.574L459 221z"/><path fill="#963A68" d="M368 207h1c.143 7.429.143 7.429-1 11h-2l-1 5h-1v-11l2 3 2-8z"/><path fill="#E47477" d="M375 212h9v4l-8 1-1-5z"/><path fill="#762E56" d="M346 192h2v5h3l1-5h2v8l-2-1-4 1-2-8z"/><path fill="#F2ECEC" d="M173 283c2.74-.222 4.44-.348 6.813 1.125 1.678 2.65 1.392 4.807 1.187 7.875h-2l-1-5h-5v-4z"/><path fill="#E27983" d="M377 217h7v5h-6l-1-5z"/><path fill="#E85D85" d="M213 207h7v3l4 1h-11v-4z"/><path fill="#FD965D" d="M338 118h2c.336 1.625.668 3.25 1 4.875l.563 2.742C342 128 342 128 342 130c-4.43 2.092-4.43 2.092-7.313 1.625L333 131l2.438-1.063c2.912-1.78 2.912-1.78 3.437-5.437.328-3.473.328-3.473-.875-6.5z"/><path fill="#FDF6EB" d="M394 54h2c3.223 5.176 3.223 5.176 4 7l-1 3-8-7 3-1v-2z"/><path fill="#554359" d="M355 302h1v18h-1l-.375-2.438L354 315l-2-1 1-7h1l1-5z"/><path fill="#DECACC" d="M189 290l1 2 2 1h-3v2c-6.055.195-6.055.195-8 0l-2-2 5-1v-1l5-1z"/><path fill="#C591AA" d="M438 273v1l10 1v1c-2.23.027-4.458.046-6.688.063l-3.761.035c-3.013-.083-5.634-.39-8.551-1.098 1-2 1-2 2.813-2.688 2.375-.339 3.92-.04 6.187.688z"/><path fill="#BE8392" d="M209 271l2 3-1.95-.465c-3.948-.692-7.863-.893-11.863-1.098l-2.388-.13c-1.933-.106-3.866-.207-5.799-.307v-1c2.395-.196 4.79-.382 7.188-.563l2.04-.17c3.76-.275 7.17-.472 10.772.733z"/><path fill="#A56380" d="M426 266h2l-1 9-5-1 1-7 3 4v-5z"/><path fill="#ED648C" d="M213 236h11v4h-5v-2h-6v-2z"/><path fill="#CB485F" d="M211 223l2 4h-2l-1 3-2.313-.938A110.556 110.556 0 00202 227v-2l6.152-.684c1.86-.135 1.86-.135 2.848-1.316z"/><path fill="#F1C663" d="M268 171l2 4-5 6-2-1v-2l-2-1c3-2 3-2 7-2v-4z"/><path fill="#FBA660" d="M220 150c2.612.958 3.803 1.69 5.313 4.063.964 4.12.354 7.797-.313 11.937l3 1h-4l-.113-2.336-.2-3.039-.175-3.023L223 156l-3-2v-4z"/><path fill="#FCB051" d="M215 136h3v2h-2v6h-2l-1 4h-3v-3h2v-3l2-1c.656-2.527.656-2.527 1-5z"/><path fill="#DEBBBF" d="M389 282h6v2h12v2l-17-1-1-3z"/><path fill="#9B667E" d="M428 275h5v2l4 1c-3.371 1.498-5.204 2-9 2v-5z"/><path fill="#7F748C" d="M506 263h7v2h9v1a553.52 553.52 0 01-6.313.625l-3.55.352C509 267 509 267 506 265v-2z"/><path fill="#4E2548" d="M342 190c2.438 1.125 2.438 1.125 5 3 .813 3.188.813 3.188 1 6h-2l-1 4c-1.098-4.32-2.178-8.617-3-13z"/><path fill="#DC6F86" d="M397 157l3 1-1 1h12v2l-4 2-1-1a85.688 85.688 0 00-4.563-.563l-2.503-.253L397 161v-4z"/><path fill="#953255" d="M331 130h1v8l-2-2-3.313 1.563C323 139 323 139 320 138l1-2 2.813-.313c4.009-.864 4.909-2.396 7.187-5.687z"/><path fill="#ECA963" d="M197 94h1l-1 10-5 1c1.222-4.043 2.628-7.493 5-11z"/><path fill="#FEF2E2" d="M400 64c2.817.08 4.49.476 6.48 2.52 2.582 3.434 2.582 3.434 3.52 5.48l-1 3c-1.503-1.643-3.002-3.29-4.5-4.938l-2.531-2.777C400 65 400 65 400 64z"/><path fill="#CFB1B2" d="M388 282c1.125 1.688 1.125 1.688 2 4-.875 2.75-.875 2.75-2 5h-3c.586-6.152.586-6.152 1-8l2-1z"/><path fill="#F2E8E8" d="M168 276h13c-3 3-3 3-5.7 3.293l-2.988-.106-3.011-.082L167 279l1-3z"/><path fill="#C2607A" d="M255 263c2.406 2.185 3.795 4.26 5.188 7.188l1.042 2.167L262 274h-7v-2h3l-1.5-2.813C255 266 255 266 255 263z"/><path fill="#753454" d="M374 212l2 1c.633 2.066.633 2.066 1.125 4.563l.508 2.503L378 222h-2v-2l-3-1-1-5h2v-2z"/><path fill="#EE7F88" d="M398 197h9l-1 3h-6v2h-2v-5z"/><path fill="#FCCB4C" d="M264 168l3.313.5c3.562.567 3.562.567 6.687.5l-1 3-5-1v2l-5-2 1-3z"/><path fill="#EE3F78" d="M341 165l4 4-5 4-4-2 4-1 1-5z"/><path fill="#F38699" d="M407 163h3v3c-4.672 1.206-9.215 1.094-14 1v-2h11v-2z"/><path fill="#5C2C3F" d="M298 147l1 2c2.017 1.134 2.017 1.134 4 2-4.266 1.138-7.565 2-12 2v-3l7-1v-2z"/><path fill="#BA95A8" d="M463 241h1v13h-5l1-4h3v-9z"/><path fill="#4F2E4F" d="M323 200l5 1v2l2 1h-2v2h-2l-2-3-1.813.625C320 204 320 204 317 202h6v-2z"/><path fill="#FEF3DA" d="M192 99h2c-1.748 5.467-3.658 10.758-6 16-1.467-3.815-.433-6.29 1-10h2l1-6z"/><path fill="#807489" d="M472 275l7 2-2 5-4-1h3v-2l-6-2 2-2z"/><path fill="#C36181" d="M185 220l2 1c2.546.232 5.074.419 7.625.563l2.14.13c1.745.106 3.49.207 5.235.307v1h-15v2l2 1-3 1-1-7z"/><path fill="#4B2E4F" d="M332 194l3 1 1 7h-2l-1 3c-1-3-1-3-1-7l-1-3 1-1z"/><path fill="#D8447A" d="M320 167l3 4-2.438.813L318 173l-1 3h-2c1.09-3.775 1.908-6.47 5-9z"/><path fill="#EEAB64" d="M427 102c2.001 2.547 3.857 4.953 5 8-.375 2.25-.375 2.25-1 4v-2l-4-1v-9z"/><path fill="#90383A" d="M316 104c-2.264 2.264-3.249 2.45-6.313 3.063l-2.421.496L305 108l-3.063.625L300 109c2.259-2.57 4.2-3.68 7.438-4.75l2.308-.797c2.46-.494 3.9-.246 6.254.547z"/><path fill="#C0BDC9" d="M314 317h2c1.46 2.647 2 3.894 2 7h-3l-1 4v-11z"/><path fill="#E5C9BC" d="M266 306h7v5h-7l2-3-2-2z"/><path fill="#D88A9D" d="M403 268h3c.195 1.457.38 2.916.563 4.375l.316 2.46C407 277 407 277 406 279h-2v-3h2v-3h-3v-5z"/><path fill="#B75373" d="M206 266c3.522-.08 6.62-.04 10 1v2c-5.415 1.23-5.415 1.23-8.375.063L206 268v-2z"/><path fill="#FDB95A" d="M332 144h2v6h-3l1 3-3-1 1-6h2v-2z"/><path fill="#F19766" d="M320 102v1l-3.438.313c-4.756.578-9.081 2.038-13.562 3.687l-1-2c6.079-3.242 11.184-3.333 18-3z"/><path fill="#F29154" d="M404 70c1.938.813 1.938.813 4 2l1 3c-2.49.687-4.379 1-7 1 .506-2.169 1-4 2-6z"/><path fill="#FEEED9" d="M219 62l3 2-7 7-1-3c2.333-4.667 2.333-4.667 5-6z"/><path fill="#F28D55" d="M392 58c1.938.75 1.938.75 4 2 .75 2.125.75 2.125 1 4h-3v-2h-8v-1h6v-3z"/><path fill="#E7DBE2" d="M442 288l8 1-3 1-1 2v-2h-2l1 4h-4l1-6z"/><path fill="#EEDAD9" d="M249 278h2c1.47 4.412 2.369 7.483 1 12h-1v-6h-2v-6z"/><path fill="#E1C0C4" d="M181 276h14v1l-8 1v2h-3v-2h-3v-2z"/><path fill="#DCBDB0" d="M270 287l2 4h-8v-3l6-1z"/><path fill="#342639" d="M365 273h2l1 6-6 2c0-3 0-3 1.5-4.563L365 275v-2z"/><path fill="#C89EA3" d="M198 275l3 2v2h-10v-2c3.313-1.125 3.313-1.125 7-2z"/><path fill="#C96A89" d="M228 267h7l-1 4h-5l-1-4z"/><path fill="#59516F" d="M118 247c1.414 2.639 2.372 5.071 3 8h-6l1-6h2v-2z"/><path fill="#F8E0DF" d="M454 155l6 1-1 3-2.25-.063c-2.455.056-4.411.37-6.75 1.063l-1-2 5-2v-1z"/><path fill="#974C43" d="M290 151l2 4-2.152.805-2.786 1.07-2.777 1.055c-2.434.852-2.434.852-3.285 3.07l-2-1c3.222-3.867 6.15-4.88 11-6v-3z"/><path fill="#743256" d="M258 196c2 2 2 2 2.313 4.875-.34 3.389-1.041 4.664-3.313 7.125-.143-8.571-.143-8.571 1-12z"/><path fill="#FDB86B" d="M333 154c1.75.125 1.75.125 4 1 4 5.222 4 5.222 4 8l2 1c-3.257-.561-4.956-1.372-7-4a93.365 93.365 0 01-1-4l-2-2z"/><path fill="#CC5F4D" d="M396 148h13v1l-12 1v3h-2l1-5z"/><path fill="#3D2A38" d="M296 140h2l1 3 2 2v4h-2c-3.223-5.273-3.223-5.273-4-7l1-2z"/><path fill="#F1B169" d="M332 132h2c.813 2.125.813 2.125 1 5-1.444 2.301-3.109 4.016-5 6l-2-1 1.438-1.625c1.844-2.803 2.187-5.071 2.562-8.375z"/><path fill="#F88F46" d="M231 57l2 1c-1.095 3.174-1.982 3.99-4.938 5.75C225 65 225 65 222 65c2.136-3.203 3.732-4.121 7-6l2-2z"/><path fill="#7F3D68" d="M324 196c2.867.573 3.861.861 6 3v3l-4-1v-2h-2v-3z"/><path fill="#C94375" d="M359 187l2 3h-3l-2 7h-1v-8l4-2z"/><path fill="#E6C8C8" d="M260 276l4 1 1 4h-3v6h-1c-.125-7.75-.125-7.75 1-10l-2-1z"/><path fill="#D691A5" d="M370 268l2 1v4l2 1-2 1c-1.134 2.017-1.134 2.017-2 4l-2-1 1-1c.232-1.515.412-3.038.563-4.563l.253-2.503L370 268z"/><path fill="#6A364F" d="M369 268h1v9l-2 1c-1.23-5.415-1.23-5.415-.063-8.375L369 268z"/><path fill="#776785" d="M496 238h3l1 7h-3l-1-7z"/><path fill="#F9E9F2" d="M164 211h3v2l3 1-1 2h-3v-2l-4 1v-2h2v-2z"/><path fill="#C56573" d="M424 190h9c-3 2-3 2-5 2l-1 4-1-4h-2v-2z"/><path fill="#683749" d="M276 170l6 3v1h-10l4-2v-2z"/><path fill="#ECAF6C" d="M433 115c2.4 3.6 4.322 6.961 3.625 11.375L436 128v-2h-2l-1-11z"/><path fill="#FDF0DB" d="M212 70l2 2a962.085 962.085 0 01-2.938 4l-1.652 2.25L208 80h-1v-5h2v-2c1.5-1.625 1.5-1.625 3-3z"/><path fill="#D59599" d="M241 276l7 3c-2.647 1.46-3.894 2-7 2v-5z"/><path fill="#81798F" d="M139 271v1h-10v-2c4.054-1.158 6.218-.837 10 1z"/><path fill="#D36F81" d="M240 268h4v5c-1.938-.375-1.938-.375-4-1l-1-2 1-2z"/><path fill="#5F556D" d="M144 268l1 2h-10v-2c3.31-1.103 5.655-.994 9 0z"/><path fill="#7B6B8C" d="M490 244h3v8h-2l-1-8z"/><path fill="#944C78" d="M166 217c2.25.25 2.25.25 4 1l-2 1c-1.134 2.017-1.134 2.017-2 4l-4-2c1.75-2.063 1.75-2.063 4-4z"/><path fill="#BA4678" d="M328 176l1 2 2 1-11 3c2.621-2.621 4.822-4.196 8-6z"/><path fill="#95345F" d="M315 171l2 1-2 4 3-3 2 1-1 4-5-1a99.984 99.984 0 010-5l1-1z"/><path fill="#7B2047" d="M336 166l3 1-5 5-3-2c2.313-2.063 2.313-2.063 5-4z"/><path fill="#FEBA60" d="M393 148h2v13h-1a987.023 987.023 0 01-1.063-5.938l-.597-3.34L392 149l1-1z"/><path fill="#E6A266" d="M418 87c2.387 2.963 4.735 5.943 7 9l-1 2c-2.825-1.412-3.55-3.228-5-6-.688-2.813-.688-2.813-1-5z"/><path fill="#D1C6CE" d="M429 293l8 1c-3.435 2.29-4.985 2.178-9 2l1-3z"/><path fill="#DFB6BF" d="M369 280l-1 1 3 2h-8v-3c3.75-1.125 3.75-1.125 6 0z"/><path fill="#796B87" d="M124 255l2 1-1 3h-2v2h-3l-1-3 1.938-.375L123 257l1-2z"/><path fill="#E9738C" d="M379 223h5v4l-5-1v-3z"/><path fill="#FACB58" d="M391 214h4v4h-6l2-4z"/><path fill="#7A3F69" d="M320 186c6.152.586 6.152.586 8 1l1 2c-3.375.188-3.375.188-7 0l-2-3z"/><path fill="#D3326C" d="M343 170v3c-1 1-1 1-3.313 1.188-2.765-.193-4.327-.79-6.687-2.188 2.892-.826 4.887-1 8-1l2-1z"/><path fill="#F7BA47" d="M293 143l3 1v4l-6-1 3-4z"/><path fill="#F8783B" d="M386 57l6 1v3l-6-1v-3z"/><path fill="#856981" d="M465 276l1 2 3-1v3l-6 1v-2l-2-1h4v-2z"/><path fill="#E6E0E8" d="M490 271c0 3 0 3-1.5 4.688L487 277l-3-2 2-1-1-2 5-1z"/><path fill="#6B6176" d="M502 229a99.984 99.984 0 015 0c1 1 1 1 1.063 3.563L508 235l-1-4h-2v2c-2-1-2-1-3-4z"/><path fill="#B63260" d="M368 198l3 2v2l-6 2c1.875-4.875 1.875-4.875 3-6z"/><path fill="#F6CD52" d="M352 170h8l-1 3c-2.938-.375-2.938-.375-6-1l-1-2z"/><path fill="#D6426F" d="M329 130h2c-1.152 2.468-2.048 4.048-4 6-2.625.125-2.625.125-5 0 2-2 2-2 5-3l2-3z"/><path fill="#5B3258" d="M308 128l9 2-1 4-2-1v-2l-6-1v-2z"/><path fill="#F39045" d="M416 86l2 1c.625 3.063.625 3.063 1 6h-4c-.043-2-.04-4 0-6l1-1z"/><path fill="#D7BCBD" d="M265 283c1.938.313 1.938.313 4 1l1 3h-5v-4z"/><path fill="#C184A0" d="M428 270h4v2l2 1-6 2v-5z"/><path fill="#37223E" d="M250 242l6 1-1 5c-2.5-1.313-2.5-1.313-5-3v-3z"/><path fill="#806E8E" d="M487 239l7 1v2h-6l-1-3z"/><path fill="#CF4E71" d="M255 200h2l-2 8h-2v-5h2v-3z"/><path fill="#472942" d="M307 106h4v5l-5-1 1-4z"/><path fill="#FDF2DA" d="M195 91l4 2-4 6c-1.097-3.29-.8-4.713 0-8z"/><path fill="#FB8D49" d="M221 66l3 2-1 2c-3.063.625-3.063.625-6 1l4-5z"/></svg>